<?xml version="1.0" encoding="UTF-8" standalone="no"?>
<!-- Created with Inkscape (http://www.inkscape.org/) -->

<svg
   width="24"
   height="24"
   viewBox="0 0 6.3499999 6.3499999"
   version="1.1"
   id="svg1"
   inkscape:version="1.3.2 (091e20e, 2023-11-25, custom)"
   sodipodi:docname="ge.svg"
   xmlns:inkscape="http://www.inkscape.org/namespaces/inkscape"
   xmlns:sodipodi="http://sodipodi.sourceforge.net/DTD/sodipodi-0.dtd"
   xmlns="http://www.w3.org/2000/svg"
   xmlns:svg="http://www.w3.org/2000/svg">
  <sodipodi:namedview
     id="namedview1"
     pagecolor="#ffffff"
     bordercolor="#000000"
     borderopacity="0.25"
     inkscape:showpageshadow="2"
     inkscape:pageopacity="0.0"
     inkscape:pagecheckerboard="0"
     inkscape:deskcolor="#d1d1d1"
     inkscape:document-units="mm"
     inkscape:zoom="23.18721"
     inkscape:cx="10.479915"
     inkscape:cy="10.285843"
     inkscape:window-width="1920"
     inkscape:window-height="1001"
     inkscape:window-x="-9"
     inkscape:window-y="1071"
     inkscape:window-maximized="1"
     inkscape:current-layer="layer1" />
  <defs
     id="defs1">
    <clipPath
       clipPathUnits="userSpaceOnUse"
       id="clipPath157">
      <path
         d="M 115.625,115.625 H 2432.3242 V 3182.3242 H 115.625 Z"
         transform="matrix(0.31999999,0,0,0.31999999,-103,-914.99996)"
         clip-rule="evenodd"
         id="path157" />
    </clipPath>
  </defs>
  <g
     inkscape:label="Layer 1"
     inkscape:groupmode="layer"
     id="layer1">
    <rect
       style="opacity:0;fill:none;stroke-width:2.64583;stroke-linejoin:round;stroke-miterlimit:16"
       id="rect1"
       width="6.3499999"
       height="6.3499999"
       x="0"
       y="0" />
    <path
       id="path156"
       d="m 1.5000044,-11.203087 c 0,-0.07031 0.023437,-0.144532 0.078125,-0.21875 0.0625,-0.08203 0.1328125,-0.125 0.21875,-0.125 0.09375,0 1.0234375,0.417968 2.7968751,1.25 1.7812501,0.8242185 3.5351564,1.6523435 5.2656252,2.4843748 1.7265623,0.8242188 2.5976563,1.2460938 2.6093753,1.2656251 0.08203,0.054687 0.125,0.140625 0.125,0.265625 0,0.125 -0.04297,0.2148437 -0.125,0.265625 -0.02344,0.03125 -1.789063,0.875 -5.2968754,2.5312501 l -5.2343752,2.4687501 h -0.109375 c -0.21875,-0.019531 -0.328125,-0.140625 -0.328125,-0.359375 0,-0.0625 0.019531,-0.1289063 0.0625,-0.203125 0.050781,-0.0625 1.8164063,-0.9140626 5.2968752,-2.5625001 L 11.35938,-6.2812121 1.6406294,-10.906212 c -0.09375,-0.08203 -0.140625,-0.179688 -0.140625,-0.296875 z m 0.03125,13.3437502 c 0,-0.1367187 0.085937,-0.2578125 0.265625,-0.359375 H 12.312505 c 0.1875,0.082031 0.28125,0.203125 0.28125,0.359375 0,0.1445313 -0.08984,0.265625 -0.265625,0.359375 H 1.7812544 c -0.1679688,-0.085937 -0.25,-0.203125 -0.25,-0.359375 z m 0,0"
       style="fill:#000000;fill-opacity:1;fill-rule:nonzero;stroke:none"
       aria-label="≥"
       transform="matrix(0.26458333,0,0,0.26458333,1.3105131,4.3718161)"
       clip-path="url(#clipPath157)" />
  </g>
</svg>
