<?xml version="1.0" encoding="UTF-8" standalone="no"?>
<!-- Created with Inkscape (http://www.inkscape.org/) -->

<svg
   width="24"
   height="24"
   viewBox="0 0 6.3499999 6.3499999"
   version="1.1"
   id="svg1"
   inkscape:version="1.3.2 (091e20e, 2023-11-25, custom)"
   sodipodi:docname="braces.svg"
   xmlns:inkscape="http://www.inkscape.org/namespaces/inkscape"
   xmlns:sodipodi="http://sodipodi.sourceforge.net/DTD/sodipodi-0.dtd"
   xmlns="http://www.w3.org/2000/svg"
   xmlns:svg="http://www.w3.org/2000/svg">
  <sodipodi:namedview
     id="namedview1"
     pagecolor="#ffffff"
     bordercolor="#000000"
     borderopacity="0.25"
     inkscape:showpageshadow="2"
     inkscape:pageopacity="0.0"
     inkscape:pagecheckerboard="0"
     inkscape:deskcolor="#d1d1d1"
     inkscape:document-units="mm"
     inkscape:zoom="16.395833"
     inkscape:cx="8.6607372"
     inkscape:cy="7.715375"
     inkscape:window-width="1920"
     inkscape:window-height="1001"
     inkscape:window-x="-9"
     inkscape:window-y="1071"
     inkscape:window-maximized="1"
     inkscape:current-layer="layer1" />
  <defs
     id="defs1">
    <clipPath
       clipPathUnits="userSpaceOnUse"
       id="clipPath87">
      <path
         d="M 115.625,115.625 H 2432.3242 V 3182.3242 H 115.625 Z"
         transform="matrix(0.31999999,0,0,0.31999999,-103,-430.99998)"
         clip-rule="evenodd"
         id="path87" />
    </clipPath>
    <clipPath
       clipPathUnits="userSpaceOnUse"
       id="clipPath89">
      <path
         d="M 115.625,115.625 H 2432.3242 V 3182.3242 H 115.625 Z"
         transform="matrix(0.31999999,0,0,0.31999999,-112.60937,-433.99998)"
         clip-rule="evenodd"
         id="path89" />
    </clipPath>
    <clipPath
       clipPathUnits="userSpaceOnUse"
       id="clipPath84">
      <path
         d="M 115.625,115.625 H 2432.3242 V 3182.3242 H 115.625 Z"
         transform="matrix(0.31999999,0,0,0.31999999,-51.999998,-403.99998)"
         clip-rule="evenodd"
         id="path84" />
    </clipPath>
    <clipPath
       clipPathUnits="userSpaceOnUse"
       id="clipPath86">
      <path
         d="M 115.625,115.625 H 2432.3242 V 3182.3242 H 115.625 Z"
         transform="matrix(0.31999999,0,0,0.31999999,-65.624997,-403.99998)"
         clip-rule="evenodd"
         id="path86" />
    </clipPath>
    <clipPath
       clipPathUnits="userSpaceOnUse"
       id="clipPath84-7">
      <path
         d="M 115.625,115.625 H 2432.3242 V 3182.3242 H 115.625 Z"
         transform="matrix(0.31999999,0,0,0.31999999,-51.999998,-403.99998)"
         clip-rule="evenodd"
         id="path84-5" />
    </clipPath>
    <clipPath
       clipPathUnits="userSpaceOnUse"
       id="clipPath86-8">
      <path
         d="M 115.625,115.625 H 2432.3242 V 3182.3242 H 115.625 Z"
         transform="matrix(0.31999999,0,0,0.31999999,-65.624997,-403.99998)"
         clip-rule="evenodd"
         id="path86-9" />
    </clipPath>
  </defs>
  <g
     inkscape:label="Layer 1"
     inkscape:groupmode="layer"
     id="layer1">
    <rect
       style="opacity:0;fill:none;stroke:none;stroke-width:1.83105;stroke-linejoin:round;stroke-miterlimit:16"
       id="rect1"
       width="6.3499999"
       height="6.3499999"
       x="0"
       y="0" />
    <path
       id="path83"
       d="m 7.8750025,4.187517 c 0,0.1640625 -0.039063,0.2851563 -0.109375,0.359375 h -0.328125 c -0.9179688,0 -1.7109376,-0.15625 -2.3750001,-0.46875 C 4.4062524,3.765642 4.0000023,3.281267 3.8437523,2.6250169 3.8203148,2.5390794 3.8046898,1.6640794 3.7968773,1.6833334e-5 c 0,-0.250000013334 0,-0.570312523334 0,-0.968750043334 -0.011719,-1.07031259 -0.042969,-1.67578129 -0.09375,-1.81250009 -0.011719,-0.00781 -0.015625,-0.019531 -0.015625,-0.03125 -0.1484375,-0.375 -0.4296875,-0.6953125 -0.84375,-0.96875 -0.40625,-0.2695313 -0.8593751,-0.40625 -1.3593751,-0.40625 -0.125,0 -0.2109375,-0.015625 -0.25,-0.046875 -0.03125,-0.039063 -0.046875,-0.140625 -0.046875,-0.2968751 0,-0.1640625 0.015625,-0.265625 0.046875,-0.296875 0.039063,-0.039063 0.125,-0.0625 0.25,-0.0625 0.5,0 0.9531251,-0.1328125 1.3593751,-0.40625 0.4140625,-0.2695312 0.6953125,-0.59375 0.84375,-0.96875 0.050781,-0.1445313 0.078125,-0.296875 0.078125,-0.453125 0.00781,-0.1562501 0.019531,-0.9453126 0.03125,-2.3750001 0.00781,-1.6562505 0.023437,-2.5234375 0.046875,-2.6093755 0.1015625,-0.394531 0.3007813,-0.71875 0.5937501,-0.96875 0.53125,-0.53125 1.3320313,-0.835937 2.4062501,-0.921875 0.019531,0 0.097656,-0.0039 0.234375,-0.01563 0.1445312,-0.0078 0.2539062,-0.01563 0.328125,-0.01563 h 0.359375 c 0.070312,0.07422 0.109375,0.183594 0.109375,0.328125 0,0.167969 -0.015625,0.265625 -0.046875,0.296875 -0.03125,0.03125 -0.1328125,0.04687 -0.296875,0.04687 -0.6796875,0.04297 -1.2421876,0.242188 -1.6875001,0.59375 -0.2421875,0.179688 -0.3984375,0.382813 -0.46875,0.609375 -0.0625,0.15625 -0.09375,1.054688 -0.09375,2.6875005 0,1.5742188 -0.00781,2.3984376 -0.015625,2.4687501 -0.125,0.9492187 -0.8515625,1.6328125 -2.1718751,2.046875 1.3437501,0.4687501 2.0664063,1.1562501 2.1718751,2.0625001 0.00781,0.074219 0.015625,0.8984376 0.015625,2.46875013 0,1.63281257 0.03125,2.53125007 0.09375,2.68750007 0.125,0.3320313 0.390625,0.6093751 0.796875,0.8281251 0.4140625,0.21875 0.8671876,0.34375 1.3593751,0.375 0.1640625,0 0.265625,0.015625 0.296875,0.046875 0.03125,0.03125 0.046875,0.1171875 0.046875,0.265625 z m 0,0"
       style="fill:#000000;fill-opacity:1;fill-rule:nonzero;stroke:none"
       aria-label="{"
       transform="matrix(0.26458333,0,0,0.26458333,0.1736323,4.3759572)"
       clip-path="url(#clipPath84-7)" />
    <path
       id="path85"
       d="m 1.1875028,-13.265609 c 0,-0.164062 0.00781,-0.265625 0.03125,-0.296875 0.019531,-0.03906 0.09375,-0.0625 0.21875,-0.0625 h 0.15625 c 0.96875,0 1.7695313,0.167969 2.4062501,0.5 0.6445313,0.324219 1.0546875,0.796875 1.2343751,1.421875 0.03125,0.105469 0.046875,0.980469 0.046875,2.6250005 0.00781,1.6367188 0.019531,2.5000001 0.03125,2.5937501 0.125,0.4375 0.3945312,0.8125 0.8125,1.125 0.4257813,0.3125 0.9101563,0.46875 1.4531251,0.46875 0.125,0 0.203125,0.023437 0.234375,0.0625 0.039063,0.03125 0.0625,0.1328125 0.0625,0.296875 0,0.1562501 -0.023437,0.2578126 -0.0625,0.2968751 -0.03125,0.03125 -0.109375,0.046875 -0.234375,0.046875 -0.4804688,0 -0.9296876,0.1367187 -1.3437501,0.40625 -0.4179688,0.2617187 -0.6953125,0.5742187 -0.828125,0.9375 -0.0625,0.15625 -0.1015625,0.3203125 -0.109375,0.484375 0,0.15625 -0.00781,0.9453126 -0.015625,2.359375133334 C 5.2695342,1.6640794 5.2539092,2.5390794 5.234378,2.6250169 5.1289092,3.0195482 4.9296904,3.343767 4.6406279,3.593767 3.9921904,4.2265795 2.9843779,4.546892 1.6093778,4.546892 h -0.1875 c -0.1054688,0 -0.171875,-0.027344 -0.203125,-0.078125 -0.023437,-0.042969 -0.03125,-0.140625 -0.03125,-0.296875 0,-0.1367187 0.00781,-0.21875 0.03125,-0.25 0.019531,-0.03125 0.078125,-0.046875 0.171875,-0.046875 0.59375,0 1.1015625,-0.1328125 1.5312501,-0.390625 0.4375,-0.25 0.71875,-0.5703125 0.84375,-0.9531251 0.00781,-0.0625 0.019531,-0.921875 0.03125,-2.57812507 l 0.015625,-2.48437513 c 0.21875,-1 0.9414063,-1.671875 2.1718751,-2.0156251 -0.3984375,-0.125 -0.6992188,-0.2421875 -0.9062501,-0.359375 -0.6679687,-0.3945312 -1.078125,-0.890625 -1.234375,-1.484375 l -0.03125,-0.1875 -0.015625,-2.4687501 c -0.011719,-1.6445315 -0.023437,-2.5039065 -0.03125,-2.5781255 -0.125,-0.382812 -0.40625,-0.703125 -0.84375,-0.953125 -0.4296876,-0.25 -0.9375001,-0.375 -1.5312501,-0.375 -0.09375,0 -0.1523438,-0.01563 -0.171875,-0.04687 -0.023437,-0.03125 -0.03125,-0.117187 -0.03125,-0.265625 z m 0,0"
       style="fill:#000000;fill-opacity:1;fill-rule:nonzero;stroke:none"
       aria-label="}"
       transform="matrix(0.26458333,0,0,0.26458333,3.7785799,4.3759572)"
       clip-path="url(#clipPath86-8)" />
  </g>
</svg>
