<?xml version="1.0" encoding="UTF-8" standalone="no"?>
<!-- Created with Inkscape (http://www.inkscape.org/) -->

<svg
   width="24"
   height="24"
   viewBox="0 0 6.3499999 6.3499999"
   version="1.1"
   id="svg1"
   inkscape:version="1.3.2 (091e20e, 2023-11-25, custom)"
   sodipodi:docname="subscript.svg"
   xmlns:inkscape="http://www.inkscape.org/namespaces/inkscape"
   xmlns:sodipodi="http://sodipodi.sourceforge.net/DTD/sodipodi-0.dtd"
   xmlns="http://www.w3.org/2000/svg"
   xmlns:svg="http://www.w3.org/2000/svg">
  <sodipodi:namedview
     id="namedview1"
     pagecolor="#ffffff"
     bordercolor="#000000"
     borderopacity="0.25"
     inkscape:showpageshadow="2"
     inkscape:pageopacity="0.0"
     inkscape:pagecheckerboard="0"
     inkscape:deskcolor="#d1d1d1"
     inkscape:document-units="mm"
     inkscape:zoom="11.593605"
     inkscape:cx="15.310165"
     inkscape:cy="12.808786"
     inkscape:window-width="1920"
     inkscape:window-height="1001"
     inkscape:window-x="-9"
     inkscape:window-y="1071"
     inkscape:window-maximized="1"
     inkscape:current-layer="layer1" />
  <defs
     id="defs1">
    <clipPath
       clipPathUnits="userSpaceOnUse"
       id="clipPath87">
      <path
         d="M 115.625,115.625 H 2432.3242 V 3182.3242 H 115.625 Z"
         transform="matrix(0.31999999,0,0,0.31999999,-103,-430.99998)"
         clip-rule="evenodd"
         id="path87" />
    </clipPath>
    <clipPath
       clipPathUnits="userSpaceOnUse"
       id="clipPath89">
      <path
         d="M 115.625,115.625 H 2432.3242 V 3182.3242 H 115.625 Z"
         transform="matrix(0.31999999,0,0,0.31999999,-112.60937,-433.99998)"
         clip-rule="evenodd"
         id="path89" />
    </clipPath>
  </defs>
  <g
     inkscape:label="Layer 1"
     inkscape:groupmode="layer"
     id="layer1">
    <rect
       style="fill:none;stroke-width:1.99262;stroke-linejoin:round;stroke-miterlimit:16;opacity:0;stroke:none"
       id="rect1"
       width="6.3499999"
       height="6.3499999"
       x="-5.5511151e-17"
       y="1.110223e-15" />
    <path
       id="path86"
       d="m 8.1562546,-7.1562323 c 0,0.15625 -0.2304687,1.1328125 -0.6875,2.9218751 -0.4492188,1.7812501 -0.671875,2.7812501 -0.671875,3.0000001 0,0.51171878 0.1640625,0.76562504 0.5,0.76562504 0.1132813,-0.007813 0.234375,-0.0664063 0.359375,-0.17187501 0.2578125,-0.23828126 0.5078125,-0.81640633 0.75,-1.73437503 0.070312,-0.2382813 0.1328125,-0.3671876 0.1875,-0.3906251 0.019531,-0.00781 0.078125,-0.015625 0.1718751,-0.015625 h 0.078125 c 0.2265625,0 0.34375,0.054687 0.34375,0.15625 0,0.042969 -0.023437,0.1367188 -0.0625,0.2812501 -0.2617188,1.0234375 -0.5859376,1.72656253 -0.9687501,2.10937505 -0.28125,0.28125001 -0.6210937,0.42187502 -1.015625,0.42187502 -0.7734375,0 -1.3085938,-0.29687502 -1.6093751,-0.89062504 -0.054687,-0.15625001 -0.078125,-0.22656251 -0.078125,-0.21875001 -0.023437,-0.007813 -0.046875,-0.003906 -0.078125,0.015625 -0.023437,0.0234375 -0.046875,0.046875 -0.078125,0.078125 -0.5742188,0.54296878 -1.1484375,0.86718754 -1.7187501,0.98437504 -0.074219,0.0195313 -0.2265625,0.03125 -0.453125,0.03125 -0.8046875,0 -1.4648438,-0.33203127 -1.9843751,-1.00000005 C 0.77344182,-1.3437321 0.59375432,-2.0195134 0.59375432,-2.8437322 c 0,-0.1953125 0.007813,-0.3320312 0.03125,-0.40625 0.0820313,-0.7695313 0.33203126,-1.5078125 0.74999998,-2.2187501 0.4140626,-0.7070312 0.9140626,-1.28125 1.5000001,-1.71875 0.6953125,-0.5390626 1.4296876,-0.8125001 2.2031251,-0.8125001 0.6015625,0 1.1484376,0.2929688 1.6406251,0.8750001 0.1953125,-0.3515626 0.4726562,-0.5312501 0.828125,-0.5312501 0.15625,0 0.296875,0.046875 0.421875,0.140625 0.125,0.09375 0.1875,0.2148438 0.1875,0.3593751 z m -6.0156252,5.2343752 c 0,0.4375 0.09375,0.7929688 0.28125,1.06250002 0.1875,0.26171876 0.4609375,0.39062502 0.828125,0.39062502 0.3515625,0 0.7265626,-0.14453126 1.1250001,-0.43750002 0.1445312,-0.09375 0.34375,-0.27343752 0.59375,-0.54687502 0.25,-0.2695313 0.3945313,-0.453125 0.4375,-0.546875 0.03125,-0.039063 0.1953125,-0.6875001 0.5,-1.9375001 0.3125001,-1.2500001 0.4687501,-1.9218751 0.4687501,-2.0156251 0,-0.1445312 -0.070312,-0.3515625 -0.2031251,-0.625 -0.2617187,-0.5195313 -0.640625,-0.78125 -1.140625,-0.78125 -0.4921875,0 -0.9179688,0.2109375 -1.2812501,0.625 -0.3671875,0.40625 -0.6484375,0.8828125 -0.84375,1.421875 -0.3554688,0.9492188 -0.6054688,1.9375001 -0.75,2.9687502 0,0.042969 -0.00781,0.109375 -0.015625,0.203125 0,0.09375 0,0.1679687 0,0.21875 z m 0,0"
       style="fill:#000000;fill-opacity:1;fill-rule:nonzero;stroke:none"
       aria-label="a"
       transform="matrix(0.26458333,0,0,0.26458333,1.1162104,3.8178501)"
       clip-path="url(#clipPath87)" />
    <path
       id="path88"
       d="m 1.1250047,-8.6718573 c 0.00781,0 0.3164063,-0.019531 0.9218751,-0.0625 0.6015625,-0.050781 0.9101563,-0.078125 0.921875,-0.078125 0.1015625,0 0.15625,0.039063 0.15625,0.109375 0,0.074219 -0.1523437,0.6992188 -0.453125,1.8750001 -0.2929688,1.1679688 -0.4375,1.7578126 -0.4375,1.7656251 0,0.023437 0.023437,0.00781 0.078125,-0.046875 0.2890625,-0.2382813 0.6132813,-0.3984375 0.96875,-0.484375 0.1015625,-0.00781 0.2070313,-0.015625 0.3125,-0.015625 0.1132813,0 0.2187501,0.00781 0.3125001,0.015625 0.4453125,0.1054687 0.8007812,0.3359375 1.0625,0.6875 0.2578125,0.3554687 0.390625,0.8046875 0.390625,1.34375 0,0.9492188 -0.3359375,1.8046876 -1,2.56250014 -0.6679688,0.76171878 -1.3867188,1.14062505 -2.1562501,1.14062505 -0.25,0 -0.484375,-0.05859375 -0.703125,-0.17187501 C 0.84375473,-0.32029443 0.51562971,-0.94529446 0.51562971,-1.906232 c 0,-0.25 0.0195313,-0.4882813 0.0625,-0.71875 0,-0.00781 0.2109375,-0.8789063 0.64062499,-2.6093751 l 0.6562501,-2.5937501 c 0.00781,-0.1132813 -0.023437,-0.1875001 -0.09375,-0.2187501 -0.074219,-0.03125 -0.1953125,-0.046875 -0.359375,-0.046875 -0.0625,0 -0.1093751,0 -0.1406251,0 -0.1796875,0 -0.2773437,-0.00781 -0.29687498,-0.03125 -0.0546875,-0.039063 -0.0585938,-0.1445312 -0.015625,-0.3125 0.03125,-0.1132812 0.0546875,-0.1796875 0.078125,-0.203125 0.03125,-0.019531 0.054687,-0.03125 0.078125,-0.03125 z m 3.1406252,4.5468752 c 0,-0.6757813 -0.2578125,-1.015625 -0.7656251,-1.015625 -0.023437,0 -0.054687,0.00781 -0.09375,0.015625 -0.03125,0 -0.054687,0 -0.0625,0 -0.4375,0.085937 -0.8554688,0.3867187 -1.25,0.90625 -0.011719,0.023437 -0.03125,0.046875 -0.0625,0.078125 l -0.03125,0.046875 c 0,0.011719 -0.078125,0.3203125 -0.234375,0.9218751 -0.1484375,0.59375 -0.2265625,0.9335937 -0.234375,1.015625 -0.054687,0.2617188 -0.078125,0.4960938 -0.078125,0.703125 0,0.40625 0.097656,0.7148438 0.296875,0.92187506 0.1328125,0.13671876 0.3046875,0.20312501 0.515625,0.20312501 0.28125,0 0.5625,-0.13281251 0.84375,-0.40625002 0.21875,-0.19531251 0.390625,-0.43750005 0.515625,-0.71875005 0.1328125,-0.28125 0.2734376,-0.7226563 0.4218751,-1.328125 0.1445312,-0.6132813 0.21875,-1.0625001 0.21875,-1.3437501 z m 0,0"
       style="fill:#000000;fill-opacity:1;fill-rule:nonzero;stroke:none"
       aria-label=" b"
       transform="matrix(0.26458333,0,0,0.26458333,3.6586895,4.6116001)"
       clip-path="url(#clipPath89)" />
  </g>
</svg>
