<?xml version="1.0" encoding="UTF-8" standalone="no"?>
<!-- Created with Inkscape (http://www.inkscape.org/) -->

<svg
   width="24"
   height="24"
   viewBox="0 0 6.3499999 6.3499999"
   version="1.1"
   id="svg1"
   inkscape:version="1.3.2 (091e20e, 2023-11-25, custom)"
   sodipodi:docname="cdot.svg"
   xmlns:inkscape="http://www.inkscape.org/namespaces/inkscape"
   xmlns:sodipodi="http://sodipodi.sourceforge.net/DTD/sodipodi-0.dtd"
   xmlns="http://www.w3.org/2000/svg"
   xmlns:svg="http://www.w3.org/2000/svg">
  <sodipodi:namedview
     id="namedview1"
     pagecolor="#ffffff"
     bordercolor="#000000"
     borderopacity="0.25"
     inkscape:showpageshadow="2"
     inkscape:pageopacity="0.0"
     inkscape:pagecheckerboard="0"
     inkscape:deskcolor="#d1d1d1"
     inkscape:document-units="mm"
     inkscape:zoom="11.593605"
     inkscape:cx="4.4852313"
     inkscape:cy="5.9084297"
     inkscape:window-width="1920"
     inkscape:window-height="1001"
     inkscape:window-x="-9"
     inkscape:window-y="1071"
     inkscape:window-maximized="1"
     inkscape:current-layer="layer1" />
  <defs
     id="defs1">
    <clipPath
       clipPathUnits="userSpaceOnUse"
       id="clipPath73">
      <path
         d="M 115.625,115.625 H 2432.3242 V 3182.3242 H 115.625 Z"
         transform="matrix(0.31999999,0,0,0.31999999,-103,-272.99999)"
         clip-rule="evenodd"
         id="path73" />
    </clipPath>
  </defs>
  <g
     inkscape:label="Layer 1"
     inkscape:groupmode="layer"
     id="layer1">
    <rect
       style="opacity:0;fill:none;stroke-width:2.64583;stroke-linejoin:round;stroke-miterlimit:16"
       id="rect1"
       width="6.3499999"
       height="6.3499999"
       x="0"
       y="0" />
    <path
       id="path72"
       d="m 2.5312544,-3.4531138 c -0.3242188,0 -0.5898438,-0.109375 -0.796875,-0.328125 -0.2109375,-0.21875 -0.3125,-0.4726563 -0.3125,-0.765625 0,-0.2578125 0.078125,-0.484375 0.234375,-0.671875 0.1640625,-0.1953126 0.3671875,-0.3281251 0.609375,-0.3906251 0.15625,-0.050781 0.3203125,-0.050781 0.5,0 0.2382813,0.054687 0.4375,0.1835938 0.59375,0.3906251 0.1640625,0.1992187 0.25,0.4179687 0.25,0.65625 0,0.3242187 -0.109375,0.5898438 -0.328125,0.796875 -0.21875,0.2109375 -0.46875,0.3125 -0.75,0.3125 z m 0,0"
       style="fill:#000000;fill-opacity:1;fill-rule:nonzero;stroke:none"
       aria-label="⋅"
       transform="matrix(0.396875,0,0,0.39687499,2.1766096,4.980893)"
       clip-path="url(#clipPath73)" />
  </g>
</svg>
