<?xml version="1.0" encoding="UTF-8" standalone="no"?>
<!-- Created with Inkscape (http://www.inkscape.org/) -->

<svg
   width="24"
   height="24"
   viewBox="0 0 6.3499999 6.3499999"
   version="1.1"
   id="svg1"
   inkscape:version="1.3.2 (091e20e, 2023-11-25, custom)"
   sodipodi:docname="frac.svg"
   xmlns:inkscape="http://www.inkscape.org/namespaces/inkscape"
   xmlns:sodipodi="http://sodipodi.sourceforge.net/DTD/sodipodi-0.dtd"
   xmlns="http://www.w3.org/2000/svg"
   xmlns:svg="http://www.w3.org/2000/svg">
  <sodipodi:namedview
     id="namedview1"
     pagecolor="#ffffff"
     bordercolor="#000000"
     borderopacity="0.25"
     inkscape:showpageshadow="2"
     inkscape:pageopacity="0.0"
     inkscape:pagecheckerboard="0"
     inkscape:deskcolor="#d1d1d1"
     inkscape:document-units="mm"
     inkscape:zoom="16.395834"
     inkscape:cx="10.551461"
     inkscape:cy="11.31385"
     inkscape:window-width="1920"
     inkscape:window-height="1001"
     inkscape:window-x="-9"
     inkscape:window-y="1071"
     inkscape:window-maximized="1"
     inkscape:current-layer="layer1" />
  <defs
     id="defs1">
    <clipPath
       clipPathUnits="userSpaceOnUse"
       id="clipPath79">
      <path
         d="M 115.625,115.625 H 2432.3242 V 3182.3242 H 115.625 Z"
         transform="matrix(0.31999999,0,0,0.31999999,-36.999998,-36.999998)"
         clip-rule="evenodd"
         id="path79" />
    </clipPath>
    <clipPath
       clipPathUnits="userSpaceOnUse"
       id="clipPath81">
      <path
         d="M 115.625,115.625 H 2432.3242 V 3182.3242 H 115.625 Z"
         transform="matrix(0.31999999,0,0,0.31999999,-105.17187,-324.99999)"
         clip-rule="evenodd"
         id="path81" />
    </clipPath>
    <clipPath
       clipPathUnits="userSpaceOnUse"
       id="clipPath77">
      <path
         d="M 115.625,115.625 H 2432.3242 V 3182.3242 H 115.625 Z"
         transform="matrix(0.31999999,0,0,0.31999999,-105.45312,-338.99999)"
         clip-rule="evenodd"
         id="path77" />
    </clipPath>
    <clipPath
       clipPathUnits="userSpaceOnUse"
       id="clipPath74">
      <path
         d="M 115.625,115.625 H 2432.3242 V 3182.3242 H 115.625 Z"
         transform="matrix(0.31999999,0,0,0.31999999,-105.17187,-264.99999)"
         clip-rule="evenodd"
         id="path74" />
    </clipPath>
    <clipPath
       clipPathUnits="userSpaceOnUse"
       id="clipPath72">
      <path
         d="M 115.625,115.625 H 2432.3242 V 3182.3242 H 115.625 Z"
         transform="matrix(0.31999999,0,0,0.31999999,-36.999998,-36.999998)"
         clip-rule="evenodd"
         id="path72" />
    </clipPath>
    <clipPath
       clipPathUnits="userSpaceOnUse"
       id="clipPath70">
      <path
         d="M 115.625,115.625 H 2432.3242 V 3182.3242 H 115.625 Z"
         transform="matrix(0.31999999,0,0,0.31999999,-105.45312,-278.99999)"
         clip-rule="evenodd"
         id="path70" />
    </clipPath>
  </defs>
  <g
     inkscape:label="Layer 1"
     inkscape:groupmode="layer"
     id="layer1">
    <rect
       style="opacity:0;fill:none;stroke-width:2.64583;stroke-linejoin:round;stroke-miterlimit:16"
       id="rect1"
       width="6.3499999"
       height="6.3499999"
       x="0"
       y="0" />
    <path
       id="path69"
       d="m 5.8750046,-5.4687386 c 0.1132813,0 0.2109375,0.03125 0.2968751,0.09375 0.082031,0.0625 0.125,0.1523438 0.125,0.265625 0,0.1054688 -0.2109376,0.9921876 -0.6250001,2.6562501 -0.40625,1.66796884 -0.640625,2.58203138 -0.703125,2.75000014 -0.1367188,0.41406251 -0.3554688,0.79687506 -0.65625,1.14062506 -0.3046875,0.3515625 -0.6523438,0.6328125 -1.0468751,0.84375 -0.4609375,0.21875 -0.8867188,0.328125 -1.28125,0.328125 -0.6484376,0 -1.08593757,-0.203125 -1.31250008,-0.609375 -0.0859375,-0.125 -0.125,-0.296875 -0.125,-0.515625 0,-0.2929688 0.078125,-0.51562503 0.23437501,-0.67187504 C 0.95703568,0.65626165 1.1445357,0.57813665 1.3437544,0.57813665 c 0.3750001,0 0.5625001,0.17578126 0.5625001,0.53125005 0,0.3125 -0.1523438,0.5390625 -0.453125,0.6875 -0.011719,0 -0.03125,0.00391 -0.0625,0.015625 -0.023437,0.019531 -0.042969,0.035156 -0.0625,0.046875 -0.011719,0.00781 -0.023437,0.015625 -0.03125,0.015625 h -0.046875 c 0.03125,0.050781 0.1250001,0.109375 0.2812501,0.171875 0.1328125,0.050781 0.2695312,0.078125 0.40625,0.078125 h 0.09375 c 0.1445312,0 0.2539062,-0.011719 0.328125,-0.03125 0.3203125,-0.09375 0.625,-0.3125 0.90625,-0.65625 0.2890625,-0.3359375 0.5156251,-0.73437505 0.6718751,-1.20312507 0.09375,-0.28125001 0.140625,-0.44531251 0.140625,-0.50000002 0,-0.007813 -0.011719,-0.003906 -0.03125,0.015625 -0.011719,0.0117188 -0.039063,0.0273438 -0.078125,0.046875 -0.3125001,0.22656251 -0.6562501,0.34375001 -1.0312501,0.34375001 -0.4375,0 -0.796875,-0.1015625 -1.078125,-0.29687501 C 1.585942,-0.36326964 1.4101607,-0.66014465 1.3281294,-1.0468634 c -0.011719,-0.050781 -0.015625,-0.1757813 -0.015625,-0.375 0,-0.2070313 0.00391,-0.3671875 0.015625,-0.4843751 0.0625,-0.3632812 0.2578126,-0.984375 0.5937501,-1.859375 0.1875,-0.5000001 0.28125,-0.8476563 0.28125,-1.0468751 0,-0.125 -0.011719,-0.2070312 -0.03125,-0.25 -0.023437,-0.039063 -0.074219,-0.0625 -0.15625,-0.0625 h -0.0625 c -0.1875,0 -0.375,0.089844 -0.5625,0.265625 -0.2734376,0.2734375 -0.47656257,0.6796876 -0.60937507,1.2187501 0,0 -0.007813,0.015625 -0.015625,0.046875 -0.0117188,0.023437 -0.0234375,0.03125 -0.03125,0.03125 0,0 -0.007813,0.00781 -0.015625,0.015625 0,0.011719 -0.015625,0.015625 -0.046875,0.015625 -0.0234375,0 -0.0429687,0 -0.0625,0 -0.0117188,0 -0.0429687,0 -0.09375,0 H 0.34375441 c -0.0742188,-0.070312 -0.0859375,-0.171875 -0.03125,-0.296875 0.17578125,-0.5937501 0.44140627,-1.0507813 0.79687499,-1.3750001 0.2812501,-0.2695313 0.5781251,-0.40625 0.8906251,-0.40625 0.3632812,0 0.6484375,0.1015625 0.859375,0.296875 0.2070313,0.1875 0.3125,0.453125 0.3125,0.796875 -0.011719,0.1679688 -0.023437,0.2578125 -0.03125,0.265625 0,0.054688 -0.0625,0.2343751 -0.1875,0.5468751 -0.3554687,0.9492188 -0.5625,1.640625 -0.625,2.0781251 -0.011719,0.0625 -0.015625,0.1640625 -0.015625,0.296875 0,0.3242187 0.046875,0.57031249 0.140625,0.734375 0.1015625,0.16796876 0.2890625,0.25000001 0.5625,0.25000001 0.1953125,0 0.3828125,-0.046875 0.5625,-0.14062501 0.1757813,-0.1015625 0.3046876,-0.203125 0.3906251,-0.29687501 0.09375,-0.1015625 0.2070312,-0.23828129 0.34375,-0.40624999 0,-0.00781 0.078125,-0.328125 0.234375,-0.9531251 0.15625,-0.6328125 0.3164062,-1.28125 0.484375,-1.9375 0.1640625,-0.6562501 0.265625,-1.0039063 0.296875,-1.0468751 0.1015625,-0.2265625 0.2851563,-0.34375 0.546875,-0.34375 z m 0,0"
       style="fill:#000000;fill-opacity:1;fill-rule:nonzero;stroke:none"
       aria-label=" y"
       transform="matrix(0.1984375,0,0,0.1984375,2.5703843,4.8617165)"
       clip-path="url(#clipPath70)" />
    <path
       id="path71"
       d="m 68,230 h 7 v 1 h -7 z"
       style="fill:#000000;fill-opacity:1;fill-rule:nonzero;stroke:none"
       transform="matrix(0.1984375,0,0,0.1984375,-11.013281,-43.160156)"
       clip-path="url(#clipPath72)" />
    <path
       id="path73"
       d="m 0.73437941,-3.5312391 c -0.0546875,-0.050781 -0.078125,-0.097656 -0.078125,-0.140625 0.0390625,-0.2265625 0.17187501,-0.5195313 0.39062499,-0.875 0.40625,-0.6015626 0.9062501,-0.9531251 1.5000001,-1.0468751 0.125,-0.00781 0.2109375,-0.015625 0.265625,-0.015625 0.3007813,0 0.578125,0.078125 0.828125,0.234375 0.25,0.1484375 0.4257813,0.3359375 0.5312501,0.5625 0.1132812,-0.1445312 0.1796875,-0.234375 0.203125,-0.265625 0.3203125,-0.3515625 0.6875,-0.53125 1.09375,-0.53125 0.34375,0 0.6171875,0.1015625 0.828125,0.296875 0.2187501,0.1992188 0.3281251,0.4453125 0.3281251,0.7343751 0,0.2617187 -0.074219,0.4804687 -0.2187501,0.65625 -0.1484375,0.1796875 -0.34375,0.265625 -0.59375,0.265625 -0.15625,0 -0.2890625,-0.046875 -0.390625,-0.140625 -0.1054687,-0.09375 -0.15625,-0.21875 -0.15625,-0.375 0,-0.3828125 0.2109375,-0.6484376 0.640625,-0.7968751 0,-0.00781 -0.046875,-0.039063 -0.140625,-0.09375 -0.085937,-0.039063 -0.203125,-0.0625 -0.359375,-0.0625 -0.1171875,0 -0.1992188,0.00781 -0.25,0.015625 -0.3242188,0.1367188 -0.5585938,0.4179688 -0.703125,0.8437501 -0.03125,0.0625 -0.15625,0.5390625 -0.375,1.421875 -0.2187501,0.8750001 -0.3398438,1.3671876 -0.3593751,1.4687501 -0.023437,0.125 -0.03125,0.2578125 -0.03125,0.390625 0,0.19921876 0.054687,0.35937502 0.171875,0.48437502 0.125,0.11718751 0.2812501,0.17187501 0.4687501,0.17187501 0.3515625,0 0.6757812,-0.14843751 0.96875,-0.45312502 0.2890625,-0.30078131 0.484375,-0.63281251 0.578125,-1.00000001 0.03125,-0.082031 0.054687,-0.1289063 0.078125,-0.140625 0.03125,-0.00781 0.097656,-0.015625 0.203125,-0.015625 0.1640625,0 0.25,0.03125 0.25,0.09375 0,0.011719 -0.011719,0.058594 -0.03125,0.140625 -0.1484375,0.5234375 -0.4453125,0.98046876 -0.890625,1.37500003 -0.3984375,0.31250001 -0.8125,0.46875002 -1.25,0.46875002 -0.5937501,0 -1.0429688,-0.26562501 -1.3437501,-0.79687504 -0.25,0.37500002 -0.5703125,0.63281253 -0.953125,0.76562504 -0.074219,0.007813 -0.1835938,0.015625 -0.3281251,0.015625 -0.4921875,0 -0.83593749,-0.17187501 -1.03124999,-0.51562502 C 0.4843794,-0.53514523 0.4375044,-0.70702024 0.4375044,-0.906239 c 0,-0.25 0.078125,-0.4609375 0.23437501,-0.640625 0.15625001,-0.1757813 0.34765629,-0.265625 0.57812499,-0.265625 0.3632813,0 0.5468751,0.1796875 0.5468751,0.53125 0,0.3125 -0.1484375,0.54296876 -0.4375001,0.68750002 -0.023437,0.0117188 -0.046875,0.0234375 -0.078125,0.03125 -0.023437,0.0117188 -0.042969,0.0234375 -0.0625,0.03125 -0.011719,0.0117188 -0.023437,0.015625 -0.03125,0.015625 h -0.03125 c 0,0.03125 0.0625,0.0742188 0.1875,0.12500001 0.1015625,0.0429687 0.2109375,0.0625 0.3281251,0.0625 0.3125,0 0.578125,-0.19140626 0.796875,-0.57812503 0.09375,-0.1445313 0.2539062,-0.6914063 0.484375,-1.6406251 0.050781,-0.1953125 0.109375,-0.4140625 0.171875,-0.65625 0.0625,-0.2382813 0.1015625,-0.421875 0.125,-0.546875 0.03125,-0.125 0.050781,-0.1953125 0.0625,-0.21875 0.039063,-0.2265625 0.0625,-0.3945313 0.0625,-0.5 0,-0.2070313 -0.058594,-0.3671876 -0.171875,-0.4843751 -0.1054687,-0.1132812 -0.2578125,-0.171875 -0.453125,-0.171875 -0.375,0 -0.703125,0.1484375 -0.984375,0.4375 -0.2812501,0.2929688 -0.4765626,0.6250001 -0.5781251,1.0000001 -0.023437,0.085937 -0.042969,0.1328125 -0.0625,0.140625 -0.023437,0.011719 -0.089844,0.015625 -0.20312498,0.015625 z m 0,0"
       style="fill:#000000;fill-opacity:1;fill-rule:nonzero;stroke:none"
       aria-label="x"
       transform="matrix(0.1984375,0,0,0.1984375,2.5145737,2.0835915)"
       clip-path="url(#clipPath74)" />
  </g>
</svg>
