<?xml version="1.0" encoding="UTF-8" standalone="no"?>
<!-- Created with Inkscape (http://www.inkscape.org/) -->

<svg
   width="24"
   height="24"
   viewBox="0 0 6.3499999 6.3499999"
   version="1.1"
   id="svg1"
   inkscape:version="1.3.2 (091e20e, 2023-11-25, custom)"
   sodipodi:docname="times.svg"
   xmlns:inkscape="http://www.inkscape.org/namespaces/inkscape"
   xmlns:sodipodi="http://sodipodi.sourceforge.net/DTD/sodipodi-0.dtd"
   xmlns="http://www.w3.org/2000/svg"
   xmlns:svg="http://www.w3.org/2000/svg">
  <sodipodi:namedview
     id="namedview1"
     pagecolor="#ffffff"
     bordercolor="#000000"
     borderopacity="0.25"
     inkscape:showpageshadow="2"
     inkscape:pageopacity="0.0"
     inkscape:pagecheckerboard="0"
     inkscape:deskcolor="#d1d1d1"
     inkscape:document-units="mm"
     inkscape:zoom="8.1979168"
     inkscape:cx="8.5387546"
     inkscape:cy="15.552732"
     inkscape:window-width="1920"
     inkscape:window-height="1001"
     inkscape:window-x="-9"
     inkscape:window-y="1071"
     inkscape:window-maximized="1"
     inkscape:current-layer="layer1" />
  <defs
     id="defs1">
    <clipPath
       clipPathUnits="userSpaceOnUse"
       id="clipPath71">
      <path
         d="M 115.625,115.625 H 2432.3242 V 3182.3242 H 115.625 Z"
         transform="matrix(0.31999999,0,0,0.31999999,-103,-242.99999)"
         clip-rule="evenodd"
         id="path71" />
    </clipPath>
  </defs>
  <g
     inkscape:label="Layer 1"
     inkscape:groupmode="layer"
     id="layer1">
    <rect
       style="opacity:0;fill:none;stroke-width:2.64583;stroke-linejoin:round;stroke-miterlimit:16"
       id="rect1"
       width="6.3499999"
       height="6.3499999"
       x="0"
       y="0" />
    <path
       id="path70"
       d="m 11.437505,-0.5312399 c 0,0.10546876 -0.03906,0.19531251 -0.109375,0.26562501 -0.07422,0.0742188 -0.164063,0.10937501 -0.265625,0.10937501 -0.0625,0 -0.199219,-0.0976563 -0.40625,-0.29687501 C 10.445317,-0.6484274 9.878911,-1.2109274 8.9531297,-2.140615 L 7.0625046,-4.03124 5.1562545,-2.12499 c -1.28125,1.26171884 -1.9453126,1.90234387 -1.9843751,1.92187512 -0.042969,0.03125 -0.085937,0.046875 -0.125,0.046875 -0.09375,0 -0.1835937,-0.0351563 -0.265625,-0.10937501 -0.074219,-0.0703125 -0.109375,-0.16015625 -0.109375,-0.26562501 0,-0.0195313 0.00781,-0.0664063 0.03125,-0.140625 0.039063,-0.0703125 0.6796875,-0.734375 1.9218751,-1.9843751 l 1.8906251,-1.8906251 -1.8906251,-1.875 C 3.3828169,-7.6718652 2.7421919,-8.3320215 2.7031294,-8.4062402 c -0.023437,-0.050781 -0.03125,-0.09375 -0.03125,-0.125 0,-0.09375 0.035156,-0.1796875 0.109375,-0.265625 0.070312,-0.082031 0.15625,-0.125 0.25,-0.125 0.019531,0 0.066406,0.015625 0.140625,0.046875 0.039063,0.023437 0.7031251,0.6640625 1.9843751,1.921875 l 1.9062501,1.9062501 1.8906251,-1.8906251 c 0.9257813,-0.9257813 1.4921873,-1.4882813 1.7031253,-1.6875 0.207031,-0.1953125 0.34375,-0.296875 0.40625,-0.296875 0.101562,0 0.191406,0.039063 0.265625,0.109375 0.07031,0.074219 0.109375,0.1640625 0.109375,0.265625 0,0.042969 -0.01563,0.089844 -0.04687,0.140625 -0.02344,0.054687 -0.65625,0.703125 -1.9062503,1.9531251 l -1.8906251,1.90625 1.8906251,1.9218751 c 1.2500003,1.2500001 1.8828123,1.90234384 1.9062503,1.9531251 0.03125,0.0546875 0.04687,0.1015625 0.04687,0.140625 z m 0,0"
       style="fill:#000000;fill-opacity:1;fill-rule:nonzero;stroke:none"
       aria-label="×"
       transform="matrix(0.396875,0,0,0.396875,0.37516903,4.9764365)"
       clip-path="url(#clipPath71)" />
  </g>
</svg>
