<?xml version="1.0" encoding="UTF-8" standalone="no"?>
<!-- Created with Inkscape (http://www.inkscape.org/) -->

<svg
   width="24"
   height="24"
   viewBox="0 0 6.3499999 6.3499999"
   version="1.1"
   id="svg1"
   inkscape:version="1.3.2 (091e20e, 2023-11-25, custom)"
   sodipodi:docname="int.svg"
   xmlns:inkscape="http://www.inkscape.org/namespaces/inkscape"
   xmlns:sodipodi="http://sodipodi.sourceforge.net/DTD/sodipodi-0.dtd"
   xmlns="http://www.w3.org/2000/svg"
   xmlns:svg="http://www.w3.org/2000/svg">
  <sodipodi:namedview
     id="namedview1"
     pagecolor="#ffffff"
     bordercolor="#000000"
     borderopacity="0.25"
     inkscape:showpageshadow="2"
     inkscape:pageopacity="0.0"
     inkscape:pagecheckerboard="0"
     inkscape:deskcolor="#d1d1d1"
     inkscape:document-units="mm"
     inkscape:zoom="23.18721"
     inkscape:cx="12.075623"
     inkscape:cy="11.493405"
     inkscape:window-width="1920"
     inkscape:window-height="1001"
     inkscape:window-x="-9"
     inkscape:window-y="1071"
     inkscape:window-maximized="1"
     inkscape:current-layer="layer1" />
  <defs
     id="defs1">
    <clipPath
       clipPathUnits="userSpaceOnUse"
       id="clipPath105">
      <path
         d="M 115.625,115.625 H 2432.3242 V 3182.3242 H 115.625 Z"
         transform="matrix(0.31999999,0,0,0.31999999,-103,-499.99998)"
         clip-rule="evenodd"
         id="path105" />
    </clipPath>
    <clipPath
       clipPathUnits="userSpaceOnUse"
       id="clipPath109">
      <path
         d="M 115.625,115.625 H 2432.3242 V 3182.3242 H 115.625 Z"
         transform="matrix(0.31999999,0,0,0.31999999,-115.09375,-489.99998)"
         clip-rule="evenodd"
         id="path109" />
    </clipPath>
    <clipPath
       clipPathUnits="userSpaceOnUse"
       id="clipPath107">
      <path
         d="M 115.625,115.625 H 2432.3242 V 3182.3242 H 115.625 Z"
         transform="matrix(0.31999999,0,0,0.31999999,-111.57812,-505.99998)"
         clip-rule="evenodd"
         id="path107" />
    </clipPath>
    <clipPath
       clipPathUnits="userSpaceOnUse"
       id="clipPath103">
      <path
         d="M 115.625,115.625 H 2432.3242 V 3182.3242 H 115.625 Z"
         transform="matrix(0.31999999,0,0,0.31999999,-124.46874,-499.95311)"
         clip-rule="evenodd"
         id="path103" />
    </clipPath>
  </defs>
  <g
     inkscape:label="Layer 1"
     inkscape:groupmode="layer"
     id="layer1">
    <rect
       style="opacity:0;fill:none;stroke-width:2.64583;stroke-linejoin:round;stroke-miterlimit:16"
       id="rect1"
       width="6.3499999"
       height="6.3499999"
       x="0"
       y="0" />
    <path
       id="path102"
       d="m 7.7500055,-6.4531094 c 0,0.3867187 -0.1171875,0.6992187 -0.34375,0.9375 -0.2304688,0.2304688 -0.5234375,0.34375 -0.875,0.34375 -0.2304688,0 -0.4140626,-0.0625 -0.5468751,-0.1875 -0.125,-0.1328125 -0.1875,-0.3164063 -0.1875,-0.546875 0,-0.1953125 0.054687,-0.3945313 0.171875,-0.59375 0.125,-0.1953125 0.2851563,-0.3359376 0.4843751,-0.4218751 0.09375,-0.0625 0.15625,-0.09375 0.1875,-0.09375 0.050781,0 0.00781,-0.039063 -0.125,-0.125 -0.2304688,-0.125 -0.5468751,-0.1875 -0.9531251,-0.1875 -0.6679688,0 -1.2773438,0.2734375 -1.8281251,0.8125001 -0.3125,0.3125 -0.5703125,0.6875 -0.765625,1.125 -0.1875,0.4375 -0.3828125,1.0625001 -0.578125,1.8750001 -0.125,0.5625 -0.1875,1.015625 -0.1875,1.359375 0,0.8671876 0.3789062,1.4140626 1.140625,1.64062511 0.09375,0.03125 0.2421875,0.046875 0.453125,0.046875 0.1757813,0 0.3632813,-0.015625 0.5625001,-0.046875 1.1328125,-0.16406251 2.0664063,-0.66406251 2.7968751,-1.50000011 0.1015625,-0.125 0.1757812,-0.1875 0.21875,-0.1875 0.039063,0 0.1171875,0.058594 0.234375,0.171875 0.1445313,0.1484376 0.1953125,0.2500001 0.15625,0.3125001 -0.042969,0.125 -0.2265625,0.328125 -0.546875,0.609375 -0.75,0.67968751 -1.6992188,1.10156253 -2.8437501,1.26562504 -0.2734375,0.03125 -0.5078126,0.046875 -0.7031251,0.046875 -1.3046875,0 -2.2031251,-0.53125002 -2.70312507,-1.59375004 -0.23046876,-0.4453125 -0.34375002,-0.9453126 -0.34375002,-1.5000001 0,-0.5507813 0.11328126,-1.1171875 0.34375002,-1.7031251 0.34374997,-0.90625 0.91015627,-1.6757813 1.70312507,-2.3125001 0.8007813,-0.6328125 1.6445313,-1 2.5312501,-1.09375 0.070312,-0.019531 0.1914063,-0.03125 0.359375,-0.03125 0.4140625,0 0.8046876,0.070312 1.1718751,0.203125 0.6757812,0.2929688 1.015625,0.75 1.015625,1.3750001 z m 0,0"
       style="fill:#000000;fill-opacity:1;fill-rule:nonzero;stroke:none"
       aria-label=" c"
       transform="matrix(0.1984375,0,0,0.1984375,4.4341264,4.424533)"
       clip-path="url(#clipPath103)" />
    <path
       id="path104"
       d="M 1.2500043,2.906271 C 1.4140669,2.7383022 1.6250044,2.6562709 1.8750044,2.6562709 c 0.2578125,0 0.4726562,0.082031 0.640625,0.2500001 0.1757813,0.1757812 0.265625,0.390625 0.265625,0.640625 0,0.3515625 -0.1484375,0.6015625 -0.4375,0.75 -0.011719,0.019531 -0.042969,0.035156 -0.09375,0.046875 -0.054687,0.019531 -0.1015625,0.035156 -0.140625,0.046875 l -0.0625,0.046875 c 0,0.00781 0.03125,0.039063 0.09375,0.09375 0.070312,0.0625 0.1328125,0.109375 0.1875,0.140625 0.1875,0.1445313 0.421875,0.21875 0.703125,0.21875 0.2265625,0 0.421875,-0.058594 0.578125,-0.171875 C 3.898442,4.5508023 4.117192,4.2383023 4.2656295,3.781271 4.4726607,3.1953335 4.664067,1.6484584 4.8437545,-0.8593542 c 0.1757813,-2.2890626 0.359375,-4.2226564 0.546875,-5.7968752 0.3125,-2.4570314 0.4921875,-3.8164066 0.546875,-4.0781256 0.3007813,-1.738281 0.8906251,-2.894531 1.7656251,-3.46875 0.3007813,-0.1875 0.6328125,-0.316406 1.0000001,-0.390625 0.019531,0 0.070312,0 0.15625,0 0.09375,-0.0078 0.171875,-0.01563 0.234375,-0.01563 0.5703125,0.03125 1.0468753,0.230469 1.4218753,0.59375 0.375,0.367188 0.5625,0.828125 0.5625,1.390625 0,0.273438 -0.08984,0.496094 -0.265625,0.671875 -0.167969,0.167969 -0.382813,0.25 -0.640625,0.25 -0.2500003,0 -0.4609378,-0.08594 -0.6250003,-0.265625 -0.1679688,-0.175781 -0.25,-0.382812 -0.25,-0.625 0,-0.363281 0.1445312,-0.617187 0.4375,-0.765625 0.00781,-0.0078 0.035156,-0.02344 0.078125,-0.04687 0.050781,-0.01953 0.097656,-0.03906 0.140625,-0.0625 l 0.0625,-0.01563 c 0,-0.0625 -0.089844,-0.140625 -0.2656283,-0.234375 -0.2109375,-0.144531 -0.4453125,-0.21875 -0.703125,-0.21875 -0.5312501,0 -0.9218751,0.3125 -1.1718751,0.9375 -0.1484375,0.355469 -0.2617187,0.839844 -0.34375,1.453125 -0.074219,0.605469 -0.1679688,1.7187504 -0.28125,3.3437505 C 7.0703165,-5.9296719 6.890629,-4.0038906 6.703129,-2.4218593 6.4609415,-0.33592168 6.281254,1.0195471 6.1562539,1.6562659 5.8007852,3.593766 5.1093789,4.812516 4.0781289,5.3125161 c -0.3125001,0.1640625 -0.6523438,0.25 -1.0156251,0.25 -0.8671875,0 -1.4804688,-0.3750001 -1.8437501,-1.1250001 -0.1484375,-0.2617187 -0.21875,-0.5546875 -0.21875,-0.875 0,-0.2734375 0.082031,-0.4921875 0.25,-0.65625 z m 0,0"
       style="fill:#000000;fill-opacity:1;fill-rule:nonzero;stroke:none"
       aria-label="∫"
       transform="matrix(0.1984375,0,0,0.1984375,0.17392334,4.4338338)"
       clip-path="url(#clipPath105)" />
    <path
       id="path106"
       d="m 5.7031299,-4.9999791 c 0,0.1054687 -0.1640625,0.78125 -0.484375,2.0312501 -0.3125,1.25 -0.4687501,1.953125 -0.4687501,2.10937505 0,0.35546876 0.1171876,0.53125002 0.3593751,0.53125002 0.070312,-0.007813 0.15625,-0.046875 0.25,-0.109375 0.1757812,-0.17578126 0.3476562,-0.58593757 0.515625,-1.23437507 0.050781,-0.1640625 0.097656,-0.2539062 0.140625,-0.265625 0.00781,0 0.050781,0 0.125,0 h 0.046875 c 0.15625,0 0.234375,0.03125 0.234375,0.09375 0,0.03125 -0.011719,0.1015625 -0.03125,0.203125 -0.1875,0.71093754 -0.4179688,1.19921881 -0.6875,1.46875008 -0.1992188,0.1953125 -0.4335938,0.29687501 -0.703125,0.29687501 -0.5429688,0 -0.9179688,-0.20703126 -1.1250001,-0.62500003 -0.042969,-0.1015625 -0.0625,-0.1484375 -0.0625,-0.140625 -0.011719,-0.007813 -0.027344,-0.007813 -0.046875,0 -0.023437,0.0234375 -0.042969,0.0429687 -0.0625,0.0625 -0.40625,0.37500001 -0.8085938,0.60156252 -1.203125,0.68750003 -0.054687,0.007813 -0.1562501,0.015625 -0.3125001,0.015625 -0.5625,0 -1.0273438,-0.23437501 -1.39062502,-0.70312503 C 0.54687967,-0.94138521 0.42187967,-1.4140415 0.42187967,-1.999979 c 0,-0.1328125 0.003906,-0.2265625 0.015625,-0.28125 0.0507813,-0.5390625 0.22265626,-1.0546876 0.51562502,-1.5468751 0.28906251,-0.5 0.64062501,-0.8984375 1.04687501,-1.203125 0.5000001,-0.3828125 1.0195313,-0.5781251 1.5625001,-0.5781251 0.4140625,0 0.796875,0.2109376 1.140625,0.6250001 0.1328126,-0.25 0.3281251,-0.375 0.5781251,-0.375 0.1132812,0 0.2109375,0.039063 0.296875,0.109375 0.082031,0.0625 0.125,0.1484375 0.125,0.25 z M 1.5000047,-1.343729 c 0,0.3046875 0.0625,0.54687505 0.1875,0.73437506 0.1328125,0.18750001 0.3320313,0.28125001 0.59375,0.28125001 0.2382813,0 0.5000001,-0.1015625 0.7812501,-0.31250001 0.1015625,-0.0625 0.2382812,-0.18750001 0.40625,-0.37500006 0.1757813,-0.1875 0.28125,-0.3125 0.3125,-0.375 0.019531,-0.039063 0.1328125,-0.4921875 0.34375,-1.359375 0.21875,-0.8750001 0.328125,-1.3476563 0.328125,-1.4218751 0,-0.09375 -0.046875,-0.234375 -0.140625,-0.421875 -0.1796875,-0.3632813 -0.4453125,-0.546875 -0.796875,-0.546875 -0.3359375,0 -0.6328125,0.1484375 -0.890625,0.4375 -0.2617188,0.28125 -0.4609376,0.609375 -0.5937501,0.984375 -0.2421875,0.6679688 -0.4140625,1.3593751 -0.515625,2.0781251 0,0.03125 -0.00781,0.085937 -0.015625,0.15625 0,0.0625 0,0.109375 0,0.140625 z m 0,0"
       style="fill:#000000;fill-opacity:1;fill-rule:nonzero;stroke:none"
       aria-label="a"
       transform="matrix(0.1984375,0,0,0.1984375,1.876144,5.6244588)"
       clip-path="url(#clipPath107)" />
    <path
       id="path108"
       d="m 1.1250048,-8.6718549 c 0.00781,0 0.3164063,-0.019531 0.9218751,-0.0625 0.6015625,-0.050781 0.9101563,-0.078125 0.921875,-0.078125 0.1015625,0 0.15625,0.039063 0.15625,0.1093751 0,0.074219 -0.1523437,0.6992187 -0.453125,1.875 -0.2929688,1.1679688 -0.4375,1.7578126 -0.4375,1.7656251 0,0.023437 0.023437,0.00781 0.078125,-0.046875 0.2890625,-0.2382813 0.6132813,-0.3984375 0.96875,-0.484375 0.1015625,-0.00781 0.2070313,-0.015625 0.3125,-0.015625 0.1132813,0 0.2187501,0.00781 0.3125001,0.015625 0.4453125,0.1054687 0.8007812,0.3359375 1.0625,0.6875 0.2578125,0.3554688 0.390625,0.8046875 0.390625,1.3437501 0,0.9492188 -0.3359375,1.8046875 -1,2.56250008 -0.6679688,0.76171878 -1.3867188,1.14062504 -2.1562501,1.14062504 -0.25,0 -0.484375,-0.05859375 -0.703125,-0.171875 C 0.84375483,-0.3202921 0.51562982,-0.94529212 0.51562982,-1.9062297 c 0,-0.25 0.0195313,-0.4882812 0.0625,-0.71875 0,-0.00781 0.21093751,-0.8789063 0.64062498,-2.6093751 l 0.6562501,-2.5937501 c 0.00781,-0.1132813 -0.023437,-0.1875 -0.09375,-0.21875 -0.074219,-0.03125 -0.1953125,-0.046875 -0.359375,-0.046875 -0.0625,0 -0.109375,0 -0.1406251,0 -0.1796875,0 -0.2773437,-0.00781 -0.29687496,-0.03125 -0.0546875,-0.039063 -0.0585938,-0.1445313 -0.015625,-0.3125 0.03125,-0.1132813 0.0546875,-0.1796875 0.078125,-0.203125 0.03125,-0.019531 0.054687,-0.03125 0.078125,-0.03125 z M 4.26563,-4.1249798 c 0,-0.6757812 -0.2578125,-1.015625 -0.7656251,-1.015625 -0.023437,0 -0.054687,0.00781 -0.09375,0.015625 -0.03125,0 -0.054687,0 -0.0625,0 -0.4375,0.085937 -0.8554688,0.3867188 -1.25,0.90625 -0.011719,0.023437 -0.03125,0.046875 -0.0625,0.078125 l -0.03125,0.046875 c 0,0.011719 -0.078125,0.3203126 -0.234375,0.9218751 -0.1484375,0.59375 -0.2265625,0.9335938 -0.234375,1.015625 -0.054687,0.2617188 -0.078125,0.4960938 -0.078125,0.7031251 0,0.40625 0.097656,0.71484374 0.296875,0.92187499 0.1328125,0.13671876 0.3046875,0.20312501 0.515625,0.20312501 0.28125,0 0.5625,-0.1328125 0.84375,-0.40625001 0.21875,-0.19531251 0.390625,-0.43749999 0.515625,-0.71874999 0.1328126,-0.2812501 0.2734376,-0.7226563 0.4218751,-1.3281251 0.1445312,-0.6132813 0.21875,-1.0625 0.21875,-1.3437501 z m 0,0"
       style="fill:#000000;fill-opacity:1;fill-rule:nonzero;stroke:none"
       aria-label="b"
       transform="matrix(0.1984375,0,0,0.1984375,2.5737768,2.4494588)"
       clip-path="url(#clipPath109)" />
  </g>
</svg>
