<?xml version="1.0" encoding="UTF-8" standalone="no"?>
<!-- Created with Inkscape (http://www.inkscape.org/) -->

<svg
   width="24"
   height="24"
   viewBox="0 0 6.3499999 6.3499999"
   version="1.1"
   id="svg1"
   inkscape:version="1.3.2 (091e20e, 2023-11-25, custom)"
   sodipodi:docname="prod-limits.svg"
   xmlns:inkscape="http://www.inkscape.org/namespaces/inkscape"
   xmlns:sodipodi="http://sodipodi.sourceforge.net/DTD/sodipodi-0.dtd"
   xmlns="http://www.w3.org/2000/svg"
   xmlns:svg="http://www.w3.org/2000/svg">
  <sodipodi:namedview
     id="namedview1"
     pagecolor="#ffffff"
     bordercolor="#000000"
     borderopacity="0.25"
     inkscape:showpageshadow="2"
     inkscape:pageopacity="0.0"
     inkscape:pagecheckerboard="0"
     inkscape:deskcolor="#d1d1d1"
     inkscape:document-units="mm"
     inkscape:zoom="23.18721"
     inkscape:cx="13.930093"
     inkscape:cy="11.493405"
     inkscape:window-width="1920"
     inkscape:window-height="1001"
     inkscape:window-x="-9"
     inkscape:window-y="1071"
     inkscape:window-maximized="1"
     inkscape:current-layer="layer1" />
  <defs
     id="defs1">
    <clipPath
       clipPathUnits="userSpaceOnUse"
       id="clipPath139">
      <path
         d="M 115.625,115.625 H 2432.3242 V 3182.3242 H 115.625 Z"
         transform="matrix(0.31999999,0,0,0.31999999,-160.32812,-591.99998)"
         clip-rule="evenodd"
         id="path139" />
    </clipPath>
    <clipPath
       clipPathUnits="userSpaceOnUse"
       id="clipPath141">
      <path
         d="M 115.625,115.625 H 2432.3242 V 3182.3242 H 115.625 Z"
         transform="matrix(0.31999999,0,0,0.31999999,-166.17187,-573.99998)"
         clip-rule="evenodd"
         id="path141" />
    </clipPath>
    <clipPath
       clipPathUnits="userSpaceOnUse"
       id="clipPath135">
      <path
         d="M 115.625,115.625 H 2432.3242 V 3182.3242 H 115.625 Z"
         transform="matrix(0.31999999,0,0,0.31999999,-180.48437,-591.87498)"
         clip-rule="evenodd"
         id="path135" />
    </clipPath>
    <clipPath
       clipPathUnits="userSpaceOnUse"
       id="clipPath137">
      <path
         d="M 115.625,115.625 H 2432.3242 V 3182.3242 H 115.625 Z"
         transform="matrix(0.31999999,0,0,0.31999999,-165.53124,-606.99997)"
         clip-rule="evenodd"
         id="path137" />
    </clipPath>
  </defs>
  <g
     inkscape:label="Layer 1"
     inkscape:groupmode="layer"
     id="layer1">
    <rect
       style="opacity:0;fill:none;stroke-width:2.64583;stroke-linejoin:round;stroke-miterlimit:16"
       id="rect1"
       width="6.3499999"
       height="6.3499999"
       x="0"
       y="0" />
    <path
       id="path134"
       d="m 7.7500078,-6.4531006 c 0,0.3867188 -0.1171875,0.6992188 -0.34375,0.9375 -0.2304687,0.2304688 -0.5234375,0.34375 -0.875,0.34375 -0.2304688,0 -0.4140625,-0.0625 -0.546875,-0.1875 -0.125,-0.1328125 -0.1875,-0.3164062 -0.1875,-0.546875 0,-0.1953125 0.054687,-0.3945313 0.171875,-0.59375 0.125,-0.1953125 0.2851562,-0.3359375 0.484375,-0.421875 0.09375,-0.0625 0.15625,-0.09375 0.1875,-0.09375 0.050781,0 0.00781,-0.039063 -0.125,-0.125 -0.2304688,-0.125 -0.546875,-0.1875 -0.953125,-0.1875 -0.6679688,0 -1.2773439,0.2734375 -1.8281251,0.8125 -0.3125,0.3125 -0.5703125,0.6875 -0.7656251,1.125 -0.1875,0.4375001 -0.3828125,1.0625001 -0.578125,1.8750001 -0.125,0.5625 -0.1875,1.0156251 -0.1875,1.3593751 0,0.8671875 0.3789063,1.41406253 1.1406251,1.64062504 0.09375,0.03125 0.2421875,0.046875 0.453125,0.046875 0.1757812,0 0.3632812,-0.015625 0.5625,-0.046875 1.1328125,-0.16406251 2.0664063,-0.66406254 2.7968751,-1.50000004 0.1015625,-0.125 0.1757813,-0.1875 0.21875,-0.1875 0.039063,0 0.1171875,0.058594 0.234375,0.171875 0.1445313,0.1484375 0.1953125,0.25 0.15625,0.3125 -0.042969,0.125 -0.2265625,0.328125 -0.546875,0.609375 -0.75,0.67968754 -1.6992188,1.10156256 -2.8437501,1.26562507 -0.2734375,0.03125 -0.5078125,0.046875 -0.703125,0.046875 -1.3046876,0 -2.2031251,-0.53125002 -2.70312514,-1.59375007 -0.23046876,-0.4453125 -0.34375001,-0.9453125 -0.34375001,-1.5000001 0,-0.5507812 0.11328125,-1.1171875 0.34375001,-1.703125 0.34375004,-0.9062501 0.91015624,-1.6757813 1.70312504,-2.3125001 0.8007813,-0.6328126 1.6445314,-1.0000001 2.5312501,-1.0937501 0.070312,-0.019531 0.1914063,-0.03125 0.3593751,-0.03125 0.4140625,0 0.8046875,0.070312 1.171875,0.203125 0.6757813,0.2929688 1.015625,0.7500001 1.015625,1.3750001 z m 0,0"
       style="fill:#000000;fill-opacity:1;fill-rule:nonzero;stroke:none"
       aria-label=" c"
       transform="matrix(0.13229166,0,0,0.13229166,3.9276015,3.9315404)"
       clip-path="url(#clipPath135)" />
    <path
       id="path136"
       d="m 5.7031321,-4.9999749 c 0,0.1054687 -0.1640625,0.78125 -0.484375,2.0312501 -0.3125,1.25 -0.46875,1.953125 -0.46875,2.10937506 0,0.35546876 0.1171875,0.53125002 0.359375,0.53125002 0.070312,-0.007813 0.15625,-0.046875 0.25,-0.10937501 0.1757813,-0.17578125 0.3476563,-0.58593757 0.515625,-1.23437507 0.050781,-0.1640625 0.097656,-0.2539062 0.140625,-0.265625 0.00781,0 0.050781,0 0.1250001,0 h 0.046875 c 0.15625,0 0.234375,0.03125 0.234375,0.09375 0,0.03125 -0.011719,0.1015625 -0.03125,0.203125 -0.1875,0.71093755 -0.4179688,1.19921882 -0.6875001,1.46875008 -0.1992187,0.19531251 -0.4335937,0.29687502 -0.703125,0.29687502 -0.5429688,0 -0.9179688,-0.20703126 -1.125,-0.62500003 -0.042969,-0.1015625 -0.0625,-0.14843751 -0.0625,-0.14062501 -0.011719,-0.007813 -0.027344,-0.007813 -0.046875,0 -0.023437,0.0234375 -0.042969,0.0429688 -0.0625,0.0625 C 3.296882,-0.20309972 2.8945383,0.02346279 2.500007,0.1094003 c -0.054687,0.007813 -0.15625,0.015625 -0.3125,0.015625 -0.5625,0 -1.0273438,-0.23437501 -1.39062507,-0.70312503 C 0.54688192,-0.941381 0.42188191,-1.4140373 0.42188191,-1.9999748 c 0,-0.1328125 0.003906,-0.2265625 0.015625,-0.28125 0.0507813,-0.5390625 0.22265625,-1.0546875 0.51562502,-1.5468751 0.28906247,-0.5 0.64062507,-0.8984375 1.04687507,-1.203125 0.5,-0.3828125 1.0195313,-0.578125 1.5625,-0.578125 0.4140626,0 0.7968751,0.2109375 1.1406251,0.625 0.1328125,-0.25 0.328125,-0.375 0.578125,-0.375 0.1132813,0 0.2109375,0.039063 0.296875,0.109375 0.082031,0.0625 0.125,0.1484375 0.125,0.25 z M 1.500007,-1.3437248 c 0,0.3046875 0.0625,0.54687506 0.1875,0.73437507 0.1328125,0.1875 0.3320312,0.28125001 0.59375,0.28125001 0.2382813,0 0.5,-0.10156251 0.78125,-0.31250002 0.1015625,-0.0625 0.2382813,-0.1875 0.40625,-0.37500006 0.1757813,-0.1875 0.2812501,-0.3125 0.3125001,-0.375 0.019531,-0.039063 0.1328125,-0.4921875 0.34375,-1.359375 0.21875,-0.8750001 0.328125,-1.3476563 0.328125,-1.4218751 0,-0.09375 -0.046875,-0.234375 -0.140625,-0.421875 -0.1796875,-0.3632813 -0.4453125,-0.546875 -0.7968751,-0.546875 -0.3359375,0 -0.6328125,0.1484375 -0.890625,0.4375 -0.2617188,0.28125 -0.4609375,0.609375 -0.59375,0.984375 -0.2421875,0.6679688 -0.4140625,1.3593751 -0.515625,2.0781251 0,0.03125 -0.00781,0.085937 -0.015625,0.15625 0,0.0625 0,0.109375 0,0.140625 z m 0,0"
       style="fill:#000000;fill-opacity:1;fill-rule:nonzero;stroke:none"
       aria-label="a"
       transform="matrix(0.13229166,0,0,0.13229166,1.949427,5.9324505)"
       clip-path="url(#clipPath137)" />
    <path
       id="path138"
       d="m 14.265632,2.8125248 c 0.144532,0.6132813 0.679688,0.9453125 1.609375,1 h 0.25 v 0.7343751 h -5.78125 V 3.8125248 h 0.265625 c 0.84375,-0.054687 1.363281,-0.3398437 1.5625,-0.859375 l 0.04687,-0.140625 V -12.890601 H 4.9062569 v 7.8593755 l 0.015625,7.8437503 c 0.1445312,0.6132813 0.6757813,0.9453125 1.5937501,1 h 0.25 V 4.5468999 H 1.0000067 V 3.8125248 h 0.25 C 2.1015693,3.7578373 2.6250068,3.4726811 2.8125068,2.9531498 l 0.0625,-0.140625 V -11.906226 l -0.0625,-0.125 c -0.1875,-0.519531 -0.7109375,-0.804687 -1.5625001,-0.859375 h -0.25 v -0.734375 H 16.125007 v 0.734375 h -0.25 c -0.492187,0.02344 -0.859375,0.109375 -1.109375,0.265625 -0.25,0.148438 -0.417968,0.386719 -0.5,0.71875 z m 0,0"
       style="fill:#000000;fill-opacity:1;fill-rule:nonzero;stroke:none"
       aria-label="âˆ"
       transform="matrix(0.13229166,0,0,0.13229166,1.2610976,3.9480768)"
       clip-path="url(#clipPath139)" />
    <path
       id="path140"
       d="m 1.125007,-8.6718514 c 0.00781,0 0.3164062,-0.019531 0.921875,-0.0625 0.6015625,-0.050781 0.9101563,-0.078125 0.921875,-0.078125 0.1015626,0 0.1562501,0.039063 0.1562501,0.1093751 0,0.074219 -0.1523438,0.6992187 -0.4531251,1.875 -0.2929687,1.1679688 -0.4375,1.7578126 -0.4375,1.7656251 0,0.023437 0.023437,0.00781 0.078125,-0.046875 0.2890625,-0.2382813 0.6132813,-0.3984375 0.9687501,-0.484375 0.1015625,-0.00781 0.2070312,-0.015625 0.3125,-0.015625 0.1132812,0 0.21875,0.00781 0.3125,0.015625 0.4453125,0.1054687 0.8007813,0.3359375 1.0625,0.6875 0.2578125,0.3554688 0.390625,0.8046875 0.390625,1.3437501 0,0.9492188 -0.3359375,1.8046875 -1,2.56250008 -0.6679688,0.76171878 -1.3867188,1.14062504 -2.1562501,1.14062504 -0.25,0 -0.484375,-0.05859375 -0.703125,-0.171875 C 0.84375696,-0.3202886 0.51563195,-0.94528862 0.51563195,-1.9062262 c 0,-0.25 0.0195313,-0.4882812 0.0625,-0.71875 0,-0.00781 0.21093751,-0.8789063 0.64062505,-2.6093751 l 0.65625,-2.5937501 c 0.00781,-0.1132813 -0.023437,-0.1875 -0.09375,-0.21875 -0.074219,-0.03125 -0.1953125,-0.046875 -0.359375,-0.046875 -0.0625,0 -0.109375,0 -0.140625,0 -0.1796875,0 -0.2773438,-0.00781 -0.29687504,-0.03125 -0.0546875,-0.039063 -0.0585938,-0.1445313 -0.015625,-0.3125 0.03125,-0.1132813 0.0546875,-0.1796875 0.078125,-0.203125 0.03125,-0.019531 0.054687,-0.03125 0.078125,-0.03125 z m 3.1406251,4.5468751 c 0,-0.6757812 -0.2578125,-1.015625 -0.765625,-1.015625 -0.023437,0 -0.054687,0.00781 -0.09375,0.015625 -0.03125,0 -0.054687,0 -0.0625,0 -0.4375001,0.085937 -0.8554688,0.3867188 -1.2500001,0.90625 -0.011719,0.023437 -0.03125,0.046875 -0.0625,0.078125 l -0.03125,0.046875 c 0,0.011719 -0.078125,0.3203126 -0.234375,0.9218751 -0.1484375,0.59375 -0.2265625,0.9335938 -0.234375,1.015625 -0.054687,0.2617188 -0.078125,0.4960938 -0.078125,0.7031251 0,0.40625 0.097656,0.71484374 0.296875,0.92187499 0.1328125,0.13671876 0.3046875,0.20312501 0.515625,0.20312501 0.28125,0 0.5625,-0.1328125 0.8437501,-0.40625001 0.21875,-0.19531251 0.390625,-0.43749999 0.515625,-0.71874999 0.1328125,-0.2812501 0.2734375,-0.7226563 0.421875,-1.3281251 0.1445312,-0.6132813 0.21875,-1.0625 0.21875,-1.3437501 z m 0,0"
       style="fill:#000000;fill-opacity:1;fill-rule:nonzero;stroke:none"
       aria-label="b"
       transform="matrix(0.13229166,0,0,0.13229166,2.034177,1.5668268)"
       clip-path="url(#clipPath141)" />
  </g>
</svg>
