<?xml version="1.0" encoding="UTF-8" standalone="no"?>
<!-- Created with Inkscape (http://www.inkscape.org/) -->

<svg
   width="24"
   height="24"
   viewBox="0 0 6.3499999 6.3499999"
   version="1.1"
   id="svg1"
   inkscape:version="1.3.2 (091e20e, 2023-11-25, custom)"
   sodipodi:docname="prod.svg"
   xmlns:inkscape="http://www.inkscape.org/namespaces/inkscape"
   xmlns:sodipodi="http://sodipodi.sourceforge.net/DTD/sodipodi-0.dtd"
   xmlns="http://www.w3.org/2000/svg"
   xmlns:svg="http://www.w3.org/2000/svg">
  <sodipodi:namedview
     id="namedview1"
     pagecolor="#ffffff"
     bordercolor="#000000"
     borderopacity="0.25"
     inkscape:showpageshadow="2"
     inkscape:pageopacity="0.0"
     inkscape:pagecheckerboard="0"
     inkscape:deskcolor="#d1d1d1"
     inkscape:document-units="mm"
     inkscape:zoom="16.395833"
     inkscape:cx="12.442185"
     inkscape:cy="16.803049"
     inkscape:window-width="1920"
     inkscape:window-height="1001"
     inkscape:window-x="-9"
     inkscape:window-y="1071"
     inkscape:window-maximized="1"
     inkscape:current-layer="layer1" />
  <defs
     id="defs1">
    <clipPath
       clipPathUnits="userSpaceOnUse"
       id="clipPath129">
      <path
         d="M 115.625,115.625 H 2432.3242 V 3182.3242 H 115.625 Z"
         transform="matrix(0.31999999,0,0,0.31999999,-103,-591.99998)"
         clip-rule="evenodd"
         id="path129" />
    </clipPath>
    <clipPath
       clipPathUnits="userSpaceOnUse"
       id="clipPath133">
      <path
         d="M 115.625,115.625 H 2432.3242 V 3182.3242 H 115.625 Z"
         transform="matrix(0.31999999,0,0,0.31999999,-120.14062,-582.99998)"
         clip-rule="evenodd"
         id="path133" />
    </clipPath>
    <clipPath
       clipPathUnits="userSpaceOnUse"
       id="clipPath131">
      <path
         d="M 115.625,115.625 H 2432.3242 V 3182.3242 H 115.625 Z"
         transform="matrix(0.31999999,0,0,0.31999999,-120.14062,-596.99998)"
         clip-rule="evenodd"
         id="path131" />
    </clipPath>
    <clipPath
       clipPathUnits="userSpaceOnUse"
       id="clipPath127">
      <path
         d="M 115.625,115.625 H 2432.3242 V 3182.3242 H 115.625 Z"
         transform="matrix(0.31999999,0,0,0.31999999,-130.78124,-591.93748)"
         clip-rule="evenodd"
         id="path127" />
    </clipPath>
  </defs>
  <g
     inkscape:label="Layer 1"
     inkscape:groupmode="layer"
     id="layer1">
    <rect
       style="opacity:0;fill:none;stroke-width:2.64583;stroke-linejoin:round;stroke-miterlimit:16"
       id="rect1"
       width="6.3499999"
       height="6.3499999"
       x="0"
       y="0" />
    <path
       id="path126"
       d="m 7.7500058,-6.4531006 c 0,0.3867188 -0.1171875,0.6992188 -0.34375,0.9375 -0.2304688,0.2304688 -0.5234376,0.34375 -0.8750001,0.34375 -0.2304687,0 -0.4140625,-0.0625 -0.546875,-0.1875 -0.125,-0.1328125 -0.1875,-0.3164062 -0.1875,-0.546875 0,-0.1953125 0.054687,-0.3945312 0.171875,-0.59375 0.125,-0.1953125 0.2851563,-0.3359375 0.484375,-0.421875 0.09375,-0.0625 0.15625,-0.09375 0.1875,-0.09375 0.050781,0 0.00781,-0.039063 -0.125,-0.125 -0.2304687,-0.125 -0.546875,-0.1875 -0.953125,-0.1875 -0.6679688,0 -1.2773438,0.2734375 -1.8281251,0.8125 -0.3125,0.3125 -0.5703125,0.6875 -0.765625,1.125 -0.1875,0.4375001 -0.3828125,1.0625001 -0.5781251,1.8750001 -0.125,0.5625 -0.1875,1.0156251 -0.1875,1.3593751 0,0.8671875 0.3789063,1.41406253 1.1406251,1.64062504 0.09375,0.03125 0.2421875,0.046875 0.453125,0.046875 0.1757813,0 0.3632813,-0.015625 0.5625,-0.046875 1.1328126,-0.1640625 2.0664064,-0.66406254 2.7968751,-1.50000004 0.1015626,-0.125 0.1757813,-0.1875 0.2187501,-0.1875 0.039063,0 0.1171875,0.058594 0.234375,0.171875 0.1445312,0.1484375 0.1953125,0.25 0.15625,0.3125 -0.042969,0.125 -0.2265625,0.328125 -0.546875,0.609375 -0.7500001,0.67968755 -1.6992189,1.10156256 -2.8437502,1.26562507 -0.2734375,0.03125 -0.5078125,0.046875 -0.703125,0.046875 -1.3046876,0 -2.2031251,-0.53125002 -2.70312511,-1.59375007 -0.23046876,-0.4453125 -0.34375001,-0.9453125 -0.34375001,-1.5000001 0,-0.5507812 0.11328125,-1.1171875 0.34375001,-1.703125 0.34375001,-0.9062501 0.91015631,-1.6757813 1.70312511,-2.3125001 0.8007812,-0.6328126 1.6445313,-1.0000001 2.5312501,-1.0937501 0.070312,-0.019531 0.1914062,-0.03125 0.359375,-0.03125 0.4140625,0 0.8046875,0.070312 1.171875,0.203125 0.6757813,0.2929688 1.0156251,0.7500001 1.0156251,1.3750001 z m 0,0"
       style="fill:#000000;fill-opacity:1;fill-rule:nonzero;stroke:none"
       aria-label=" c"
       transform="matrix(0.13229166,0,0,0.13229166,4.4319631,4.0059537)"
       clip-path="url(#clipPath127)" />
    <path
       id="path128"
       d="m 14.26563,2.8125248 c 0.144531,0.6132813 0.679687,0.9453125 1.609375,1 h 0.25 v 0.7343751 h -5.78125 V 3.8125248 h 0.265625 c 0.84375,-0.054687 1.363281,-0.3398437 1.5625,-0.859375 l 0.04687,-0.140625 V -12.890601 H 4.9062545 v 7.8593755 l 0.015625,7.8437503 c 0.1445313,0.6132813 0.6757813,0.9453125 1.5937501,1 h 0.25 V 4.5468999 H 1.0000043 V 3.8125248 h 0.25 C 2.1015669,3.7578373 2.6250044,3.4726811 2.8125044,2.9531498 l 0.0625,-0.140625 V -11.906226 l -0.0625,-0.125 c -0.1875,-0.519531 -0.7109375,-0.804687 -1.5625001,-0.859375 h -0.25 v -0.734375 H 16.125005 v 0.734375 h -0.25 c -0.492188,0.02344 -0.859375,0.109375 -1.109375,0.265625 -0.25,0.148438 -0.417969,0.386719 -0.5,0.71875 z m 0,0"
       style="fill:#000000;fill-opacity:1;fill-rule:nonzero;stroke:none"
       aria-label="âˆ"
       transform="matrix(0.13229166,0,0,0.13229166,0.75673664,4.014222)"
       clip-path="url(#clipPath129)" />
    <path
       id="path130"
       d="m 5.7031302,-4.9999753 c 0,0.1054687 -0.1640625,0.78125 -0.484375,2.0312501 -0.3125,1.25 -0.46875,1.953125 -0.46875,2.10937504 0,0.35546876 0.1171875,0.53125002 0.359375,0.53125002 0.070312,-0.007813 0.15625,-0.046875 0.25,-0.109375 0.1757813,-0.17578126 0.3476563,-0.58593756 0.5156251,-1.23437506 0.050781,-0.1640625 0.097656,-0.2539063 0.140625,-0.265625 0.00781,0 0.050781,0 0.125,0 h 0.046875 c 0.15625,0 0.234375,0.03125 0.234375,0.09375 0,0.03125 -0.011719,0.1015625 -0.03125,0.203125 -0.1875,0.71093754 -0.4179688,1.19921881 -0.6875001,1.46875007 -0.1992187,0.19531251 -0.4335937,0.29687501 -0.703125,0.29687501 -0.5429688,0 -0.9179688,-0.20703126 -1.125,-0.62500003 -0.042969,-0.1015625 -0.0625,-0.1484375 -0.0625,-0.140625 -0.011719,-0.007813 -0.027344,-0.007813 -0.046875,0 -0.023437,0.0234375 -0.042969,0.0429687 -0.0625,0.0625 -0.4062501,0.37500002 -0.8085938,0.60156253 -1.2031251,0.68750003 -0.054687,0.007813 -0.15625,0.015625 -0.3125,0.015625 -0.5625,0 -1.0273438,-0.23437501 -1.39062506,-0.70312503 C 0.54688003,-0.94138141 0.42188002,-1.4140377 0.42188002,-1.9999752 c 0,-0.1328125 0.003906,-0.2265625 0.015625,-0.28125 0.0507813,-0.5390625 0.22265626,-1.0546876 0.51562503,-1.5468751 0.28906255,-0.5 0.64062505,-0.8984375 1.04687505,-1.203125 0.5,-0.3828126 1.0195313,-0.5781251 1.5625001,-0.5781251 0.4140625,0 0.796875,0.2109376 1.140625,0.6250001 0.1328125,-0.25 0.328125,-0.375 0.578125,-0.375 0.1132813,0 0.2109375,0.039063 0.296875,0.109375 0.082031,0.0625 0.125,0.1484375 0.125,0.25 z m -4.2031251,3.6562501 c 0,0.3046875 0.0625,0.54687504 0.1875,0.73437505 0.1328125,0.18750001 0.3320312,0.28125001 0.59375,0.28125001 0.2382813,0 0.5,-0.1015625 0.78125,-0.31250001 0.1015625,-0.0625 0.2382813,-0.18750001 0.4062501,-0.37500005 0.1757812,-0.1875 0.28125,-0.3125 0.3125,-0.375 0.019531,-0.039063 0.1328125,-0.4921875 0.34375,-1.359375 0.21875,-0.8750001 0.328125,-1.3476563 0.328125,-1.4218751 0,-0.09375 -0.046875,-0.234375 -0.140625,-0.421875 -0.1796875,-0.3632813 -0.4453125,-0.546875 -0.796875,-0.546875 -0.3359376,0 -0.6328126,0.1484375 -0.8906251,0.4375 -0.2617187,0.28125 -0.4609375,0.609375 -0.59375,0.984375 -0.2421875,0.6679688 -0.4140625,1.3593751 -0.515625,2.0781251 0,0.03125 -0.00781,0.085937 -0.015625,0.15625 0,0.0625 0,0.109375 0,0.140625 z m 0,0"
       style="fill:#000000;fill-opacity:1;fill-rule:nonzero;stroke:none"
       aria-label="a"
       transform="matrix(0.13229166,0,0,0.13229166,3.0242978,4.6756803)"
       clip-path="url(#clipPath131)" />
    <path
       id="path132"
       d="m 1.1250051,-8.6718511 c 0.00781,0 0.3164062,-0.019531 0.921875,-0.0625 0.6015625,-0.050781 0.9101563,-0.078125 0.921875,-0.078125 0.1015625,0 0.15625,0.039063 0.15625,0.109375 0,0.074219 -0.1523437,0.6992188 -0.453125,1.8750001 -0.2929687,1.1679688 -0.4375,1.7578126 -0.4375,1.7656251 0,0.023437 0.023437,0.00781 0.078125,-0.046875 0.2890625,-0.2382813 0.6132813,-0.3984375 0.96875,-0.484375 0.1015625,-0.00781 0.2070313,-0.015625 0.3125001,-0.015625 0.1132812,0 0.21875,0.00781 0.3125,0.015625 0.4453125,0.1054687 0.8007813,0.3359375 1.0625,0.6875 0.2578125,0.3554688 0.390625,0.8046875 0.390625,1.34375 0,0.9492188 -0.3359375,1.8046876 -1,2.56250015 -0.6679688,0.76171878 -1.3867188,1.14062505 -2.1562501,1.14062505 -0.25,0 -0.484375,-0.05859375 -0.703125,-0.17187501 -0.65625006,-0.28906251 -0.98437507,-0.91406254 -0.98437507,-1.87500009 0,-0.25 0.0195313,-0.4882813 0.0625,-0.71875 0,-0.00781 0.21093751,-0.8789063 0.64062507,-2.6093751 l 0.65625,-2.5937501 c 0.00781,-0.1132813 -0.023437,-0.1875 -0.09375,-0.21875 -0.074219,-0.03125 -0.1953125,-0.046875 -0.359375,-0.046875 -0.0625,0 -0.109375,0 -0.140625,0 -0.1796875,0 -0.2773438,-0.00781 -0.29687505,-0.03125 -0.0546875,-0.039063 -0.0585938,-0.1445313 -0.015625,-0.3125001 0.0312501,-0.1132812 0.0546876,-0.1796875 0.0781251,-0.203125 0.03125,-0.019531 0.054688,-0.03125 0.078125,-0.03125 z m 3.1406251,4.5468752 c 0,-0.6757813 -0.2578125,-1.015625 -0.765625,-1.015625 -0.023437,0 -0.054688,0.00781 -0.09375,0.015625 -0.03125,0 -0.054687,0 -0.0625,0 -0.4375,0.085937 -0.8554687,0.3867187 -1.25,0.90625 -0.011719,0.023437 -0.03125,0.046875 -0.0625,0.078125 l -0.03125,0.046875 c 0,0.011719 -0.078125,0.3203125 -0.234375,0.9218751 -0.1484375,0.59375 -0.2265625,0.9335937 -0.234375,1.015625 -0.054687,0.2617188 -0.078125,0.4960938 -0.078125,0.703125 0,0.40625 0.097656,0.71484381 0.296875,0.92187507 0.1328125,0.13671876 0.3046875,0.20312501 0.515625,0.20312501 0.28125,0 0.5625,-0.13281251 0.84375,-0.40625002 0.21875,-0.19531251 0.3906251,-0.43750006 0.5156251,-0.71875006 0.1328125,-0.28125 0.2734375,-0.7226562 0.421875,-1.328125 0.1445312,-0.6132813 0.21875,-1.0625001 0.2187499,-1.3437501 z m 0,0"
       style="fill:#000000;fill-opacity:1;fill-rule:nonzero;stroke:none"
       aria-label="b"
       transform="matrix(0.13229166,0,0,0.13229166,3.0242978,2.823597)"
       clip-path="url(#clipPath133)" />
  </g>
</svg>
