<?xml version="1.0" encoding="UTF-8" standalone="no"?>
<!-- Created with Inkscape (http://www.inkscape.org/) -->

<svg
   width="24"
   height="24"
   viewBox="0 0 6.3499999 6.3499999"
   version="1.1"
   id="svg1"
   inkscape:version="1.3.2 (091e20e, 2023-11-25, custom)"
   sodipodi:docname="sqrt-n.svg"
   xmlns:inkscape="http://www.inkscape.org/namespaces/inkscape"
   xmlns:sodipodi="http://sodipodi.sourceforge.net/DTD/sodipodi-0.dtd"
   xmlns="http://www.w3.org/2000/svg"
   xmlns:svg="http://www.w3.org/2000/svg">
  <sodipodi:namedview
     id="namedview1"
     pagecolor="#ffffff"
     bordercolor="#000000"
     borderopacity="0.25"
     inkscape:showpageshadow="2"
     inkscape:pageopacity="0.0"
     inkscape:pagecheckerboard="0"
     inkscape:deskcolor="#d1d1d1"
     inkscape:document-units="mm"
     inkscape:zoom="23.18721"
     inkscape:cx="11.126824"
     inkscape:cy="12.054059"
     inkscape:window-width="1920"
     inkscape:window-height="1001"
     inkscape:window-x="-9"
     inkscape:window-y="1071"
     inkscape:window-maximized="1"
     inkscape:current-layer="layer1" />
  <defs
     id="defs1">
    <clipPath
       clipPathUnits="userSpaceOnUse"
       id="clipPath97">
      <path
         d="M 115.625,115.625 H 2432.3242 V 3182.3242 H 115.625 Z"
         transform="matrix(0.31999999,0,0,0.31999999,-155.21874,-461.99998)"
         clip-rule="evenodd"
         id="path97" />
    </clipPath>
    <clipPath
       clipPathUnits="userSpaceOnUse"
       id="clipPath101">
      <path
         d="M 471.875,1412.5 H 550 v 62.5 h -78.125 z"
         transform="matrix(17.638278,0,0,17.638278,-8323.0622,-24914.067)"
         clip-rule="evenodd"
         id="path101" />
    </clipPath>
    <clipPath
       clipPathUnits="userSpaceOnUse"
       id="clipPath99">
      <path
         d="M 115.625,115.625 H 2432.3242 V 3182.3242 H 115.625 Z"
         transform="matrix(0.31999999,0,0,0.31999999,-165.70312,-467.99998)"
         clip-rule="evenodd"
         id="path99" />
    </clipPath>
  </defs>
  <g
     inkscape:label="Layer 1"
     inkscape:groupmode="layer"
     id="layer1">
    <path
       id="path96"
       d="m 0.98438151,0.09376925 c -0.0859375,0 -0.15625001,-0.0234375 -0.21875001,-0.0625 -0.0625,-0.0390625 -0.09375,-0.09765625 -0.09375,-0.17187501 0,-0.0820313 0.11328125,-0.57812502 0.34375,-1.48437504 0.2265625,-0.9062501 0.3476563,-1.3984376 0.359375,-1.4843751 0.00781,-0.03125 0.015625,-0.097656 0.015625,-0.203125 0,-0.2382812 -0.074219,-0.359375 -0.21875,-0.359375 -0.1484375,0 -0.27734375,0.1171875 -0.390625,0.34375 -0.0625,0.125 -0.12500001,0.3125 -0.18750001,0.5625 -0.03125,0.125 -0.046875,0.1875 -0.046875,0.1875 -0.0117188,0.042969 -0.0703125,0.0625 -0.17187501,0.0625 h -0.125 c -0.0429687,-0.039063 -0.0625,-0.066406 -0.0625,-0.078125 0,-0.03125 0.015625,-0.097656 0.046875,-0.203125 0.17578125,-0.7070312 0.45312502,-1.1015625 0.82812502,-1.1875 0.050781,-0.00781 0.1015625,-0.015625 0.15625,-0.015625 0.3632813,0 0.625,0.1367187 0.7812501,0.40625 0.0625,0.1171875 0.09375,0.1992188 0.09375,0.25 0,0.011719 0.00391,0.015625 0.015625,0.015625 l 0.09375,-0.09375 c 0.375,-0.3828125 0.796875,-0.578125 1.265625,-0.578125 0.3203125,0 0.5820313,0.085937 0.78125,0.25 0.2070313,0.15625 0.3125001,0.390625 0.3125001,0.703125 0,0.1367188 -0.011719,0.25 -0.03125,0.34375 -0.0625,0.3437501 -0.2304688,0.8750001 -0.5000001,1.5937501 -0.1054687,0.28125002 -0.15625,0.49609377 -0.15625,0.64062503 0,0.15625001 0.050781,0.23437501 0.15625,0.23437501 0.1953125,0 0.3671876,-0.109375 0.5156251,-0.32812501 0.15625,-0.21875001 0.2695312,-0.46875003 0.34375,-0.75000003 0.00781,-0.050781 0.070312,-0.078125 0.1875,-0.078125 0.1132812,0 0.171875,0.023437 0.171875,0.0625 0,0.042969 -0.011719,0.09375 -0.03125,0.15625 -0.15625,0.56250002 -0.4375,0.96093754 -0.8437501,1.18750005 -0.1171875,0.05078125 -0.2460937,0.078125 -0.390625,0.078125 -0.2304687,0 -0.4296875,-0.07421875 -0.59375,-0.21875001 -0.1484375,-0.1640625 -0.21875,-0.34375001 -0.21875,-0.53125002 0,-0.11328125 0.039063,-0.28515626 0.125,-0.51562502 0.2695313,-0.7070313 0.4414063,-1.2421876 0.515625,-1.6093751 0.00781,-0.09375 0.015625,-0.2070312 0.015625,-0.34375 0,-0.3515625 -0.1484375,-0.53125 -0.4375,-0.53125 -0.1171875,0 -0.1953125,0.00781 -0.234375,0.015625 -0.4296875,0.09375 -0.7890625,0.390625 -1.078125,0.890625 l -0.0625,0.109375 -0.2968751,1.2187501 C 1.507819,-0.62888703 1.3945378,-0.20310576 1.3750065,-0.14060576 1.289069,0.01564425 1.1601628,0.09376925 0.98438151,0.09376925 Z m 0,0"
       style="fill:#000000;fill-opacity:1;fill-rule:nonzero;stroke:none"
       aria-label=" n"
       transform="matrix(0.1984375,0,0,0.1984375,1.4020807,3.0712996)"
       clip-path="url(#clipPath97)" />
    <path
       id="path98"
       d="M 1.0468819,-5.0468557 C 0.97266319,-5.1171682 0.93750694,-5.1874807 0.93750694,-5.2499807 0.9882882,-5.5702932 1.1757882,-5.988262 1.500007,-6.4999808 c 0.5703125,-0.8515625 1.2890625,-1.3476563 2.1562501,-1.484375 0.1640625,-0.03125 0.2890625,-0.046875 0.375,-0.046875 0.4257812,0 0.8164063,0.109375 1.171875,0.328125 0.3515625,0.21875 0.609375,0.4960937 0.7656251,0.828125 0.15625,-0.2070312 0.2539062,-0.3359375 0.296875,-0.390625 0.4453125,-0.5078125 0.9609375,-0.765625 1.546875,-0.765625 0.4882813,0 0.8906251,0.1484375 1.2031251,0.4375 0.3125,0.28125 0.46875,0.6328125 0.46875,1.046875 0,0.375 -0.109375,0.6875001 -0.328125,0.9375001 -0.2109375,0.25 -0.4921875,0.375 -0.84375,0.375 -0.2304688,0 -0.4179688,-0.0625 -0.5625001,-0.1875 -0.1484375,-0.1328125 -0.21875,-0.3125 -0.21875,-0.53125 0,-0.5625001 0.3007813,-0.9414063 0.9062501,-1.1406251 0,-0.019531 -0.0625,-0.0625 -0.1875001,-0.125 -0.125,-0.070312 -0.3046875,-0.109375 -0.53125,-0.109375 -0.15625,0 -0.2734375,0.011719 -0.34375,0.03125 -0.4609375,0.1875 -0.796875,0.5898438 -1.015625,1.203125 -0.042969,0.09375 -0.21875,0.7656251 -0.5312501,2.0156251 -0.3125,1.2500001 -0.484375,1.9609376 -0.515625,2.1250001 -0.03125,0.1796875 -0.046875,0.3554688 -0.046875,0.53125 0,0.2929688 0.082031,0.52734381 0.25,0.70312507 0.1757813,0.16796876 0.3984376,0.25000001 0.6718751,0.25000001 0.5078125,0 0.96875,-0.21093751 1.375,-0.64062498 0.4140625,-0.4375001 0.6953125,-0.9140626 0.8437501,-1.4375001 0.03125,-0.1132813 0.0625,-0.1796875 0.09375,-0.203125 0.039063,-0.019531 0.1445312,-0.03125 0.3125,-0.03125 0.2265625,0 0.34375,0.054687 0.34375,0.15625 0,0.011719 -0.015625,0.074219 -0.046875,0.1875 -0.1992188,0.75 -0.6210938,1.4062501 -1.2656251,1.96875008 -0.5742187,0.44921877 -1.171875,0.67187503 -1.796875,0.67187503 -0.8437501,0 -1.4843751,-0.37890627 -1.9218751,-1.14062505 -0.3554688,0.54296877 -0.8046876,0.90234379 -1.3437501,1.07812505 -0.1171875,0.03125 -0.2734375,0.046875 -0.46875,0.046875 -0.7109375,0 -1.2109375,-0.25000001 -1.50000006,-0.75000003 C 0.69531943,-0.76951178 0.64063193,-1.0156055 0.64063193,-1.2968556 c 0,-0.3515625 0.10937501,-0.65625 0.32812501,-0.90625 0.21875006,-0.2578125 0.49218756,-0.390625 0.82812506,-0.390625 0.5195313,0 0.78125,0.2578125 0.78125,0.765625 0,0.4492188 -0.2148437,0.7734376 -0.640625,0.96875006 -0.023437,0.0234375 -0.054687,0.0429688 -0.09375,0.0625 -0.03125,0.0117188 -0.0625,0.0234375 -0.09375,0.03125 -0.023437,0.0117188 -0.039063,0.015625 -0.046875,0.015625 l -0.046875,0.03125 c 0,0.03125 0.085937,0.0859375 0.265625,0.15625001 0.1445312,0.0625 0.3007812,0.09375 0.46875,0.09375 0.4375,0 0.8125,-0.27343751 1.1250001,-0.82812507 0.1328125,-0.2070312 0.375,-0.9921875 0.71875,-2.3593751 0.070312,-0.2695312 0.1484375,-0.5703125 0.234375,-0.90625 0.082031,-0.34375 0.1445312,-0.6015625 0.1875,-0.78125 0.039063,-0.1875 0.066406,-0.3007813 0.078125,-0.34375 0.0625,-0.3203126 0.09375,-0.5546876 0.09375,-0.7031251 0,-0.2890625 -0.078125,-0.5195312 -0.234375,-0.6875 -0.15625,-0.1640625 -0.375,-0.25 -0.65625,-0.25 -0.5429688,0 -1.0156251,0.2109375 -1.4218751,0.625 -0.3984375,0.4179688 -0.671875,0.8984376 -0.828125,1.4375001 -0.023437,0.1054687 -0.046875,0.1679687 -0.078125,0.1875 -0.03125,0.023437 -0.1328125,0.03125 -0.296875,0.03125 z m 0,0"
       style="fill:#000000;fill-opacity:1;fill-rule:nonzero;stroke:none"
       aria-label="x"
       transform="matrix(0.1984375,0,0,0.1984375,3.4825749,4.2619245)"
       clip-path="url(#clipPath99)" />
    <path
       id="path100"
       d="m 95,702 c -2.699997,0 -7.169998,-2.70001 -13.5,-8 -5.800003,-5.29999 -9.5,-10 -9.5,-14 0,-2 0.300003,-3.29999 1,-4 1.300003,-2.70001 23.830002,-20.70001 67.5,-54 44.2,-33.29999 65.8,-50.29999 66.5,-51 1.3,-1.29999 3,-2 5,-2 4.7,0 8.7,3.29999 12,10 3.3,6.70001 173,378 173,378 0.70001,0 35.29999,-71 104,-213 C 569.70001,602 638.5,459 707.5,315 776.5,171 812,97.300003 814,94 c 5.29999,-9.300003 12,-14 20,-14 h 399166 v 40 H 845.2724 c 0,0 -225.27203,467 -225.27203,467 0,0 -235,486 -235,486 -2.70002,4.7 -9,7 -19,7 -6,0 -10,-1 -12,-3 -2,-2 -194,-422 -194,-422 0,0 -65.000004,47 -65.000004,47 z M 834,80 h 400000 v 40 H 834 Z"
       style="fill:#000000;fill-opacity:1;fill-rule:nonzero;stroke:none"
       transform="matrix(0.00360013,0,0,0.00360013,0.56492249,1.0869246)"
       clip-path="url(#clipPath101)" />
  </g>
</svg>
