<?xml version="1.0" encoding="UTF-8" standalone="no"?>
<!-- Created with Inkscape (http://www.inkscape.org/) -->

<svg
   width="24"
   height="24"
   viewBox="0 0 6.3499999 6.3499999"
   version="1.1"
   id="svg1"
   inkscape:version="1.3.2 (091e20e, 2023-11-25, custom)"
   sodipodi:docname="sum-limits.svg"
   xmlns:inkscape="http://www.inkscape.org/namespaces/inkscape"
   xmlns:sodipodi="http://sodipodi.sourceforge.net/DTD/sodipodi-0.dtd"
   xmlns="http://www.w3.org/2000/svg"
   xmlns:svg="http://www.w3.org/2000/svg">
  <sodipodi:namedview
     id="namedview1"
     pagecolor="#ffffff"
     bordercolor="#000000"
     borderopacity="0.25"
     inkscape:showpageshadow="2"
     inkscape:pageopacity="0.0"
     inkscape:pagecheckerboard="0"
     inkscape:deskcolor="#d1d1d1"
     inkscape:document-units="mm"
     inkscape:zoom="16.395833"
     inkscape:cx="15.125794"
     inkscape:cy="9.1791616"
     inkscape:window-width="1920"
     inkscape:window-height="1001"
     inkscape:window-x="-9"
     inkscape:window-y="1071"
     inkscape:window-maximized="1"
     inkscape:current-layer="layer1" />
  <defs
     id="defs1">
    <clipPath
       clipPathUnits="userSpaceOnUse"
       id="clipPath123">
      <path
         d="M 115.625,115.625 H 2432.3242 V 3182.3242 H 115.625 Z"
         transform="matrix(0.31999999,0,0,0.31999999,-162.35937,-540.99998)"
         clip-rule="evenodd"
         id="path123" />
    </clipPath>
    <clipPath
       clipPathUnits="userSpaceOnUse"
       id="clipPath125">
      <path
         d="M 115.625,115.625 H 2432.3242 V 3182.3242 H 115.625 Z"
         transform="matrix(0.31999999,0,0,0.31999999,-169.21874,-522.99998)"
         clip-rule="evenodd"
         id="path125" />
    </clipPath>
    <clipPath
       clipPathUnits="userSpaceOnUse"
       id="clipPath121">
      <path
         d="M 115.625,115.625 H 2432.3242 V 3182.3242 H 115.625 Z"
         transform="matrix(0.31999999,0,0,0.31999999,-168.57812,-555.99998)"
         clip-rule="evenodd"
         id="path121" />
    </clipPath>
    <clipPath
       clipPathUnits="userSpaceOnUse"
       id="clipPath119">
      <path
         d="M 115.625,115.625 H 2432.3242 V 3182.3242 H 115.625 Z"
         transform="matrix(0.31999999,0,0,0.31999999,-184.54687,-540.87498)"
         clip-rule="evenodd"
         id="path119" />
    </clipPath>
  </defs>
  <g
     inkscape:label="Layer 1"
     inkscape:groupmode="layer"
     id="layer1">
    <rect
       style="opacity:0;fill:none;stroke-width:2.64583;stroke-linejoin:round;stroke-miterlimit:16"
       id="rect1"
       width="6.3499999"
       height="6.3499999"
       x="0"
       y="0" />
    <path
       id="path118"
       d="m 7.750008,-6.4531027 c 0,0.3867187 -0.1171875,0.6992187 -0.34375,0.9375 -0.2304688,0.2304688 -0.5234375,0.34375 -0.875,0.34375 -0.2304688,0 -0.4140626,-0.0625 -0.5468751,-0.1875 -0.125,-0.1328125 -0.1875,-0.3164063 -0.1875,-0.546875 0,-0.1953125 0.054687,-0.3945313 0.171875,-0.59375 0.125,-0.1953125 0.2851563,-0.3359375 0.4843751,-0.4218751 0.09375,-0.0625 0.15625,-0.09375 0.1875,-0.09375 0.050781,0 0.00781,-0.039063 -0.125,-0.125 -0.2304688,-0.125 -0.5468751,-0.1875 -0.9531251,-0.1875 -0.6679688,0 -1.2773438,0.2734375 -1.8281251,0.8125001 -0.3125,0.3125 -0.5703125,0.6875 -0.765625,1.125 -0.1875,0.4375 -0.3828125,1.0625001 -0.578125,1.8750001 -0.125,0.5625 -0.1875,1.015625 -0.1875,1.359375 0,0.8671876 0.3789062,1.41406261 1.140625,1.64062511 0.09375,0.03125 0.2421875,0.046875 0.453125,0.046875 0.1757813,0 0.3632813,-0.015625 0.5625001,-0.046875 1.1328125,-0.1640625 2.0664063,-0.66406251 2.7968751,-1.50000001 0.1015625,-0.1250001 0.1757812,-0.1875001 0.21875,-0.1875001 0.039063,0 0.1171875,0.058594 0.234375,0.1718751 0.1445313,0.1484375 0.1953125,0.25 0.15625,0.3125 -0.042969,0.125 -0.2265625,0.328125 -0.546875,0.609375 -0.75,0.67968752 -1.6992188,1.10156254 -2.8437501,1.26562504 -0.2734375,0.03125 -0.5078125,0.046875 -0.7031251,0.046875 -1.3046875,0 -2.203125,-0.53125002 -2.70312507,-1.59375004 -0.23046876,-0.4453125 -0.34375001,-0.9453126 -0.34375001,-1.5000001 0,-0.5507813 0.11328125,-1.1171875 0.34375001,-1.7031251 0.34374997,-0.90625 0.91015627,-1.6757813 1.70312507,-2.3125001 0.8007813,-0.6328125 1.6445313,-1 2.5312501,-1.09375 0.070312,-0.019531 0.1914063,-0.03125 0.359375,-0.03125 0.4140625,0 0.8046876,0.070312 1.1718751,0.203125 0.6757812,0.2929688 1.015625,0.75 1.015625,1.3750001 z m 0,0"
       style="fill:#000000;fill-opacity:1;fill-rule:nonzero;stroke:none"
       aria-label=" c"
       transform="matrix(0.13229166,0,0,0.13229166,4.0609267,3.9315399)"
       clip-path="url(#clipPath119)" />
    <path
       id="path120"
       d="m 5.7031323,-4.999977 c 0,0.1054687 -0.1640625,0.78125 -0.4843751,2.03125 -0.3125,1.2500001 -0.46875,1.9531251 -0.46875,2.10937513 0,0.35546877 0.1171875,0.53125002 0.359375,0.53125002 0.070312,-0.007813 0.15625,-0.046875 0.25,-0.109375 0.1757813,-0.17578126 0.3476563,-0.58593755 0.5156251,-1.23437505 0.050781,-0.1640625 0.097656,-0.2539063 0.140625,-0.265625 0.00781,0 0.050781,0 0.125,0 h 0.046875 c 0.15625,0 0.234375,0.03125 0.234375,0.09375 0,0.03125 -0.011719,0.1015625 -0.03125,0.203125 -0.1875,0.71093753 -0.4179688,1.1992188 -0.6875,1.46875006 -0.1992188,0.19531251 -0.4335938,0.29687501 -0.7031251,0.29687501 -0.5429687,0 -0.9179688,-0.20703126 -1.125,-0.62500002 -0.042969,-0.10156251 -0.0625,-0.14843751 -0.0625,-0.14062501 -0.011719,-0.007813 -0.027344,-0.007813 -0.046875,0 -0.023437,0.0234375 -0.042969,0.0429687 -0.0625,0.0625 -0.40625,0.37500002 -0.8085938,0.60156253 -1.2031251,0.68750003 -0.054687,0.007813 -0.15625,0.015625 -0.3125,0.015625 -0.5625,0 -1.0273438,-0.23437501 -1.39062504,-0.70312503 C 0.54688205,-0.94138312 0.42188204,-1.4140394 0.42188204,-1.9999769 c 0,-0.1328125 0.003906,-0.2265625 0.015625,-0.28125 0.0507813,-0.5390626 0.22265626,-1.0546876 0.51562502,-1.5468751 0.28906254,-0.5 0.64062504,-0.8984375 1.04687504,-1.203125 0.5,-0.3828126 1.0195313,-0.5781251 1.5625001,-0.5781251 0.4140625,0 0.796875,0.2109375 1.140625,0.6250001 0.1328125,-0.2500001 0.328125,-0.3750001 0.578125,-0.3750001 0.1132813,0 0.2109376,0.039063 0.2968751,0.109375 0.082031,0.0625 0.125,0.1484376 0.125,0.2500001 z m -4.2031252,3.6562501 c 0,0.3046875 0.0625,0.54687503 0.1875,0.73437504 0.1328125,0.18750001 0.3320313,0.28125001 0.59375,0.28125001 0.2382813,0 0.5,-0.1015625 0.7812501,-0.31250001 0.1015625,-0.0625 0.2382812,-0.18750001 0.40625,-0.37500004 0.1757812,-0.1875 0.28125,-0.3125 0.3125,-0.375 0.019531,-0.039063 0.1328125,-0.4921875 0.34375,-1.359375 0.21875,-0.8750001 0.328125,-1.3476564 0.328125,-1.4218751 0,-0.09375 -0.046875,-0.234375 -0.140625,-0.421875 -0.1796875,-0.3632813 -0.4453125,-0.546875 -0.796875,-0.546875 -0.3359375,0 -0.6328126,0.1484375 -0.8906251,0.4375 -0.2617187,0.28125 -0.4609375,0.609375 -0.59375,0.984375 -0.2421875,0.6679688 -0.4140625,1.3593751 -0.515625,2.0781251 0,0.03125 -0.00781,0.085937 -0.015625,0.15625 0,0.0625 0,0.109375 0,0.140625 z m 0,0"
       style="fill:#000000;fill-opacity:1;fill-rule:nonzero;stroke:none"
       aria-label="a"
       transform="matrix(0.13229166,0,0,0.13229166,1.9483942,5.9324514)"
       clip-path="url(#clipPath121)" />
    <path
       id="path122"
       d="m 1.1093818,-13.578103 c 0.03125,-0.03125 2.6171876,-0.04687 7.7656253,-0.04687 h 7.7031249 l 0.75,2 c 0.113282,0.335938 0.238282,0.6875 0.375001,1.0625 0.144531,0.375 0.25,0.6523439 0.3125,0.8281251 0.0625,0.1679688 0.101562,0.2890625 0.125,0.3593751 h -0.359375 l -0.375001,-0.015625 c -0.261718,-0.6953122 -0.6875,-1.3046872 -1.28125,-1.8281252 -0.585937,-0.53125 -1.257812,-0.914062 -2.015625,-1.15625 -0.667968,-0.238281 -1.621093,-0.398437 -2.859375,-0.484375 -0.355469,-0.01953 -2.1718749,-0.03125 -5.453125,-0.03125 -1.6484376,0 -2.4687501,0.0078 -2.4687501,0.01563 0.03125,0.04297 1.0234375,1.414063 2.9843751,4.1093752 1.9687501,2.6875001 2.9570314,4.0429689 2.9687502,4.0625001 0.070312,0.1054688 0.082031,0.1953126 0.03125,0.2656251 L 2.7031319,3.3906477 c 1.2695313,0.00781 2.5625001,0.015625 3.8750001,0.015625 0.5703126,0 1.1914063,0 1.8593751,0 0.6640625,0 1.2226563,-0.00781 1.6718749,-0.015625 0.445313,0 0.695313,0 0.75,0 1.28125,-0.042969 2.300782,-0.171875 3.0625,-0.390625 1.351563,-0.3867188 2.378907,-1.1250001 3.078125,-2.21875013 0.113282,-0.19921875 0.25,-0.49609377 0.40625,-0.89062503 h 0.734376 C 17.953133,0.41017881 17.687508,1.1875226 17.343757,2.2187726 17.00782,3.2500227 16.753914,4.0156477 16.578132,4.5156477 l -7.7031249,0.03125 c -5.1250002,0 -7.7109378,-0.015625 -7.7500003,-0.046875 -0.074219,-0.023437 -0.109375,-0.074219 -0.109375,-0.15625 0,-0.042969 0.019531,-0.085937 0.0625,-0.125 0.00781,-0.03125 0.5703125,-0.7109375 1.6875001,-2.0312501 1.1132813,-1.31250002 2.2226563,-2.62890633 3.3281251,-3.9531251 l 1.6718751,-1.9687501 c 0,-0.019531 -1.1250001,-1.5703126 -3.3750002,-4.6562502 l -3.3593751,-4.6250002 -0.015625,-0.203125 c 0,-0.195313 0.03125,-0.316406 0.09375,-0.359375 z m 0,0"
       style="fill:#000000;fill-opacity:1;fill-rule:nonzero;stroke:none"
       aria-label="∑"
       transform="matrix(0.13229166,0,0,0.13229166,1.1257054,3.9480764)"
       clip-path="url(#clipPath123)" />
    <path
       id="path124"
       d="m 1.1250071,-8.6718536 c 0.00781,0 0.3164063,-0.019531 0.921875,-0.0625 0.6015626,-0.050781 0.9101563,-0.078125 0.9218751,-0.078125 0.1015625,0 0.15625,0.039063 0.15625,0.109375 0,0.074219 -0.1523438,0.6992188 -0.453125,1.8750001 -0.2929688,1.1679688 -0.4375001,1.7578126 -0.4375001,1.7656251 0,0.023437 0.023437,0.00781 0.078125,-0.046875 0.2890626,-0.2382813 0.6132813,-0.3984375 0.9687501,-0.484375 0.1015625,-0.00781 0.2070312,-0.015625 0.3125,-0.015625 0.1132813,0 0.21875,0.00781 0.3125,0.015625 0.4453125,0.1054687 0.8007813,0.3359375 1.0625001,0.6875 0.2578125,0.3554688 0.390625,0.8046875 0.390625,1.34375 0,0.9492188 -0.3359375,1.8046876 -1.0000001,2.56250015 -0.6679687,0.76171878 -1.3867188,1.14062505 -2.1562501,1.14062505 -0.25,0 -0.484375,-0.05859375 -0.703125,-0.17187501 -0.65625001,-0.28906251 -0.98437503,-0.91406254 -0.98437503,-1.87500009 0,-0.25 0.0195313,-0.4882813 0.0625,-0.71875 0,-0.00781 0.21093751,-0.8789063 0.64062503,-2.6093751 l 0.65625,-2.5937501 c 0.00781,-0.1132813 -0.023437,-0.1875 -0.09375,-0.21875 -0.074219,-0.03125 -0.1953125,-0.046875 -0.359375,-0.046875 -0.0625,0 -0.109375,0 -0.140625,0 -0.1796875,0 -0.2773438,-0.00781 -0.29687501,-0.03125 -0.0546875,-0.039063 -0.0585938,-0.1445313 -0.015625,-0.3125001 0.03125,-0.1132812 0.0546875,-0.1796875 0.078125,-0.203125 0.03125,-0.019531 0.054687,-0.03125 0.078125,-0.03125 z m 3.1406251,4.5468752 c 0,-0.6757813 -0.2578125,-1.015625 -0.765625,-1.015625 -0.023437,0 -0.054687,0.00781 -0.09375,0.015625 -0.03125,0 -0.054687,0 -0.0625,0 -0.4375,0.085937 -0.8554688,0.3867187 -1.2500001,0.90625 -0.011719,0.023437 -0.03125,0.046875 -0.0625,0.078125 l -0.03125,0.046875 c 0,0.011719 -0.078125,0.3203125 -0.234375,0.9218751 -0.1484375,0.59375 -0.2265625,0.9335937 -0.234375,1.015625 -0.054687,0.2617188 -0.078125,0.4960938 -0.078125,0.703125 0,0.40625 0.097656,0.71484381 0.296875,0.92187507 0.1328125,0.13671876 0.3046875,0.20312501 0.515625,0.20312501 0.2812501,0 0.5625001,-0.13281251 0.8437501,-0.40625002 0.21875,-0.19531251 0.390625,-0.43750006 0.515625,-0.71875006 0.1328125,-0.28125 0.2734375,-0.7226562 0.421875,-1.328125 0.1445313,-0.6132813 0.21875,-1.0625001 0.21875,-1.3437501 z m 0,0"
       style="fill:#000000;fill-opacity:1;fill-rule:nonzero;stroke:none"
       aria-label="b"
       transform="matrix(0.13229166,0,0,0.13229166,2.0331429,1.5668265)"
       clip-path="url(#clipPath125)" />
  </g>
</svg>
