<?xml version="1.0" encoding="UTF-8" standalone="no"?>
<!-- Created with Inkscape (http://www.inkscape.org/) -->

<svg
   width="24"
   height="24"
   viewBox="0 0 6.3499999 6.3499999"
   version="1.1"
   id="svg1"
   inkscape:version="1.3.2 (091e20e, 2023-11-25, custom)"
   sodipodi:docname="sum.svg"
   xmlns:inkscape="http://www.inkscape.org/namespaces/inkscape"
   xmlns:sodipodi="http://sodipodi.sourceforge.net/DTD/sodipodi-0.dtd"
   xmlns="http://www.w3.org/2000/svg"
   xmlns:svg="http://www.w3.org/2000/svg">
  <sodipodi:namedview
     id="namedview1"
     pagecolor="#ffffff"
     bordercolor="#000000"
     borderopacity="0.25"
     inkscape:showpageshadow="2"
     inkscape:pageopacity="0.0"
     inkscape:pagecheckerboard="0"
     inkscape:deskcolor="#d1d1d1"
     inkscape:document-units="mm"
     inkscape:zoom="23.18721"
     inkscape:cx="12.506895"
     inkscape:cy="14.512311"
     inkscape:window-width="1920"
     inkscape:window-height="1001"
     inkscape:window-x="-9"
     inkscape:window-y="1071"
     inkscape:window-maximized="1"
     inkscape:current-layer="layer1" />
  <defs
     id="defs1">
    <clipPath
       clipPathUnits="userSpaceOnUse"
       id="clipPath113">
      <path
         d="M 115.625,115.625 H 2432.3242 V 3182.3242 H 115.625 Z"
         transform="matrix(0.31999999,0,0,0.31999999,-103,-540.99998)"
         clip-rule="evenodd"
         id="path113" />
    </clipPath>
    <clipPath
       clipPathUnits="userSpaceOnUse"
       id="clipPath117">
      <path
         d="M 115.625,115.625 H 2432.3242 V 3182.3242 H 115.625 Z"
         transform="matrix(0.31999999,0,0,0.31999999,-122.17187,-530.99998)"
         clip-rule="evenodd"
         id="path117" />
    </clipPath>
    <clipPath
       clipPathUnits="userSpaceOnUse"
       id="clipPath115">
      <path
         d="M 115.625,115.625 H 2432.3242 V 3182.3242 H 115.625 Z"
         transform="matrix(0.31999999,0,0,0.31999999,-122.17187,-545.99998)"
         clip-rule="evenodd"
         id="path115" />
    </clipPath>
  </defs>
  <g
     inkscape:label="Layer 1"
     inkscape:groupmode="layer"
     id="layer1">
    <rect
       style="opacity:0;fill:none;stroke-width:2.64583;stroke-linejoin:round;stroke-miterlimit:16"
       id="rect1"
       width="6.3499999"
       height="6.3499999"
       x="0"
       y="0" />
    <path
       id="path112"
       d="m 1.1093793,-13.578103 c 0.03125,-0.03125 2.6171876,-0.04687 7.7656254,-0.04687 H 16.57813 l 0.75,2 c 0.113281,0.335938 0.238281,0.6875 0.375,1.0625 0.144531,0.375 0.25,0.6523439 0.3125,0.8281251 0.0625,0.1679688 0.101563,0.2890625 0.125,0.3593751 h -0.359375 l -0.375,-0.015625 c -0.261719,-0.6953122 -0.6875,-1.3046872 -1.28125,-1.8281252 -0.585938,-0.53125 -1.257813,-0.914062 -2.015625,-1.15625 -0.667969,-0.238281 -1.621094,-0.398437 -2.859375,-0.484375 -0.355469,-0.01953 -2.1718753,-0.03125 -5.4531255,-0.03125 -1.6484375,0 -2.4687501,0.0078 -2.4687501,0.01563 0.03125,0.04297 1.0234376,1.414063 2.9843752,4.1093752 1.96875,2.6875001 2.9570313,4.0429689 2.9687501,4.0625001 0.070312,0.1054688 0.082031,0.1953126 0.03125,0.2656251 L 2.7031294,3.3906477 c 1.2695313,0.00781 2.5625001,0.015625 3.8750002,0.015625 0.5703125,0 1.1914063,0 1.859375,0 0.6640626,0 1.2226563,-0.00781 1.6718754,-0.015625 0.445312,0 0.695312,0 0.75,0 1.28125,-0.042969 2.300781,-0.171875 3.0625,-0.390625 1.351562,-0.3867188 2.378906,-1.1250001 3.078125,-2.21875013 0.113281,-0.19921875 0.25,-0.49609377 0.40625,-0.89062503 H 18.14063 C 17.95313,0.41017881 17.687505,1.1875226 17.343755,2.2187726 17.007818,3.2500227 16.753911,4.0156477 16.57813,4.5156477 l -7.7031253,0.03125 c -5.1250003,0 -7.7109379,-0.015625 -7.7500004,-0.046875 -0.074219,-0.023437 -0.109375,-0.074219 -0.109375,-0.15625 0,-0.042969 0.019531,-0.085937 0.0625,-0.125 0.00781,-0.03125 0.5703126,-0.7109375 1.6875001,-2.0312501 1.1132813,-1.31250002 2.2226563,-2.62890633 3.3281251,-3.9531251 l 1.6718751,-1.9687501 c 0,-0.019531 -1.125,-1.5703126 -3.3750001,-4.6562502 l -3.3593752,-4.6250002 -0.015625,-0.203125 c 0,-0.195313 0.03125,-0.316406 0.09375,-0.359375 z m 0,0"
       style="fill:#000000;fill-opacity:1;fill-rule:nonzero;stroke:none"
       aria-label="∑"
       transform="matrix(0.1984375,0,0,0.1984375,0.53485065,4.5330522)"
       clip-path="url(#clipPath113)" />
    <path
       id="path114"
       d="m 5.7031303,-4.9999775 c 0,0.1054688 -0.1640625,0.7812501 -0.484375,2.0312501 -0.3125,1.2500001 -0.46875,1.9531251 -0.46875,2.10937511 0,0.35546877 0.1171875,0.53125003 0.359375,0.53125003 0.070312,-0.007813 0.15625,-0.046875 0.25,-0.10937501 0.1757813,-0.17578126 0.3476563,-0.58593753 0.515625,-1.23437503 0.050781,-0.1640625 0.097656,-0.2539063 0.140625,-0.265625 0.00781,0 0.050781,0 0.125,0 h 0.046875 c 0.1562501,0 0.2343751,0.03125 0.2343751,0.09375 0,0.03125 -0.011719,0.1015625 -0.03125,0.203125 -0.1875001,0.71093751 -0.4179688,1.19921878 -0.6875001,1.46875004 -0.1992187,0.19531251 -0.4335937,0.29687502 -0.703125,0.29687502 -0.5429688,0 -0.9179688,-0.20703126 -1.125,-0.62500003 -0.042969,-0.10156251 -0.0625,-0.14843751 -0.0625,-0.14062501 -0.011719,-0.007813 -0.027344,-0.007813 -0.046875,0 -0.023437,0.0234375 -0.042969,0.0429688 -0.0625,0.0625 -0.40625,0.37500001 -0.8085937,0.60156252 -1.203125,0.68750002 -0.054687,0.007813 -0.15625,0.015625 -0.3125,0.015625 -0.5625,0 -1.0273438,-0.23437501 -1.39062508,-0.70312503 C 0.54688011,-0.94138354 0.42188011,-1.4140398 0.42188011,-1.9999773 c 0,-0.1328125 0.003906,-0.2265625 0.015625,-0.28125 0.0507813,-0.5390626 0.22265626,-1.0546876 0.51562502,-1.5468751 0.28906247,-0.5 0.64062507,-0.8984375 1.04687507,-1.2031251 0.5,-0.3828125 1.0195313,-0.578125 1.5625,-0.578125 0.4140626,0 0.7968751,0.2109375 1.1406251,0.625 0.1328125,-0.25 0.328125,-0.375 0.578125,-0.375 0.1132813,0 0.2109375,0.039063 0.296875,0.109375 0.082031,0.0625 0.125,0.1484375 0.125,0.25 z m -4.2031251,3.6562502 c 0,0.3046875 0.0625,0.54687502 0.1875,0.73437502 0.1328125,0.18750001 0.3320312,0.28125002 0.59375,0.28125002 0.2382812,0 0.5,-0.10156251 0.78125,-0.31250002 0.1015625,-0.0625 0.2382813,-0.1875 0.40625,-0.37500002 0.1757813,-0.1875 0.28125,-0.3125 0.3125,-0.375 0.019531,-0.039063 0.1328126,-0.4921875 0.3437501,-1.3593751 0.21875,-0.875 0.328125,-1.3476563 0.328125,-1.421875 0,-0.09375 -0.046875,-0.234375 -0.140625,-0.421875 -0.1796875,-0.3632813 -0.4453125,-0.5468751 -0.7968751,-0.5468751 -0.3359375,0 -0.6328125,0.1484375 -0.890625,0.4375001 -0.2617188,0.28125 -0.4609375,0.609375 -0.59375,0.984375 -0.2421875,0.6679688 -0.4140625,1.3593751 -0.515625,2.0781251 0,0.03125 -0.00781,0.085937 -0.015625,0.15625 0,0.0625 0,0.109375 0,0.140625 z m 0,0"
       style="fill:#000000;fill-opacity:1;fill-rule:nonzero;stroke:none"
       aria-label="a"
       transform="matrix(0.1984375,0,0,0.1984375,4.3392685,5.5252397)"
       clip-path="url(#clipPath115)" />
    <path
       id="path116"
       d="m 1.1250051,-8.6718532 c 0.00781,0 0.3164063,-0.019531 0.9218751,-0.0625 0.6015625,-0.050781 0.9101563,-0.078125 0.921875,-0.078125 0.1015625,0 0.15625,0.039063 0.15625,0.109375 0,0.074219 -0.1523437,0.6992187 -0.453125,1.875 -0.2929688,1.1679688 -0.4375,1.7578126 -0.4375,1.7656251 0,0.023437 0.023437,0.00781 0.078125,-0.046875 0.2890625,-0.2382812 0.6132813,-0.3984375 0.96875,-0.484375 0.1015625,-0.00781 0.2070313,-0.015625 0.3125,-0.015625 0.1132813,0 0.21875,0.00781 0.3125001,0.015625 0.4453125,0.1054687 0.8007812,0.3359375 1.0625,0.6875 0.2578125,0.3554688 0.390625,0.8046876 0.390625,1.3437501 0,0.9492188 -0.3359375,1.8046876 -1,2.56250008 -0.6679688,0.76171879 -1.3867188,1.14062505 -2.1562501,1.14062505 -0.25,0 -0.484375,-0.05859375 -0.703125,-0.17187501 C 0.84375513,-0.32029039 0.51563011,-0.94529041 0.51563011,-1.906228 c 0,-0.25 0.0195313,-0.4882812 0.0625,-0.71875 0,-0.00781 0.21093751,-0.8789063 0.64062499,-2.6093751 l 0.6562501,-2.5937501 c 0.00781,-0.1132813 -0.023437,-0.1875 -0.09375,-0.21875 -0.074219,-0.03125 -0.1953125,-0.046875 -0.3593751,-0.046875 -0.0625,0 -0.109375,0 -0.140625,0 -0.1796875,0 -0.2773437,-0.00781 -0.29687497,-0.03125 -0.0546875,-0.039063 -0.0585938,-0.1445313 -0.015625,-0.3125 0.03125,-0.1132813 0.0546875,-0.1796875 0.078125,-0.203125 0.03125,-0.019531 0.054687,-0.03125 0.078125,-0.03125 z m 3.1406252,4.5468752 c 0,-0.6757813 -0.2578125,-1.0156251 -0.7656251,-1.0156251 -0.023437,0 -0.054687,0.00781 -0.09375,0.015625 -0.03125,0 -0.054687,0 -0.0625,0 -0.4375,0.085937 -0.8554688,0.3867188 -1.25,0.90625 -0.011719,0.023438 -0.03125,0.046875 -0.0625,0.078125 l -0.03125,0.046875 c 0,0.011719 -0.078125,0.3203125 -0.234375,0.921875 -0.1484375,0.59375 -0.2265625,0.9335938 -0.234375,1.015625 -0.054687,0.2617188 -0.078125,0.4960938 -0.078125,0.7031251 0,0.40625 0.097656,0.71484374 0.296875,0.921875 0.1328125,0.13671876 0.3046875,0.20312501 0.515625,0.20312501 0.28125,0 0.5625,-0.1328125 0.84375,-0.40625002 0.21875,-0.1953125 0.390625,-0.43749999 0.515625,-0.71874999 0.1328125,-0.28125 0.2734376,-0.7226563 0.4218751,-1.3281251 0.1445312,-0.6132813 0.21875,-1.0625 0.21875,-1.3437499 z m 0,0"
       style="fill:#000000;fill-opacity:1;fill-rule:nonzero;stroke:none"
       aria-label="b"
       transform="matrix(0.1984375,0,0,0.1984375,4.3392685,2.5486772)"
       clip-path="url(#clipPath117)" />
  </g>
</svg>
