<?xml version="1.0" encoding="UTF-8" standalone="no"?>
<!-- Created with Inkscape (http://www.inkscape.org/) -->

<svg
   width="24"
   height="24"
   viewBox="0 0 6.3499999 6.3499999"
   version="1.1"
   id="svg1"
   inkscape:version="1.3.2 (091e20e, 2023-11-25, custom)"
   sodipodi:docname="approx.svg"
   xmlns:inkscape="http://www.inkscape.org/namespaces/inkscape"
   xmlns:sodipodi="http://sodipodi.sourceforge.net/DTD/sodipodi-0.dtd"
   xmlns="http://www.w3.org/2000/svg"
   xmlns:svg="http://www.w3.org/2000/svg">
  <sodipodi:namedview
     id="namedview1"
     pagecolor="#ffffff"
     bordercolor="#000000"
     borderopacity="0.25"
     inkscape:showpageshadow="2"
     inkscape:pageopacity="0.0"
     inkscape:pagecheckerboard="0"
     inkscape:deskcolor="#d1d1d1"
     inkscape:document-units="mm"
     inkscape:zoom="11.593605"
     inkscape:cx="13.455694"
     inkscape:cy="16.517727"
     inkscape:window-width="1920"
     inkscape:window-height="1001"
     inkscape:window-x="-9"
     inkscape:window-y="1071"
     inkscape:window-maximized="1"
     inkscape:current-layer="layer1" />
  <defs
     id="defs1">
    <clipPath
       clipPathUnits="userSpaceOnUse"
       id="clipPath145">
      <path
         d="M 115.625,115.625 H 2432.3242 V 3182.3242 H 115.625 Z"
         transform="matrix(0.31999999,0,0,0.31999999,-103,-698.99997)"
         clip-rule="evenodd"
         id="path145" />
    </clipPath>
  </defs>
  <g
     inkscape:label="Layer 1"
     inkscape:groupmode="layer"
     id="layer1">
    <rect
       style="opacity:0;fill:none;stroke-width:2.64583;stroke-linejoin:round;stroke-miterlimit:16"
       id="rect1"
       width="6.3499999"
       height="6.3499999"
       x="0"
       y="0" />
    <path
       id="path144"
       d="m 12.85938,-8.7655962 c 0.164062,0 0.25,0.1875 0.25,0.5625 0,0.6875 -0.1875,1.2773438 -0.5625,1.7656251 -0.375,0.4921875 -0.871094,0.8359375 -1.484375,1.03125 -0.335938,0.1054688 -0.664063,0.15625 -0.984375,0.15625 -0.3984378,0 -0.8203128,-0.082031 -1.2656253,-0.25 -0.3750001,-0.1328125 -0.9921876,-0.4765625 -1.8437501,-1.03125 -0.4179688,-0.2578126 -0.7148438,-0.4453126 -0.8906251,-0.5625001 -0.5429687,-0.3007812 -1.0546875,-0.5078125 -1.53125,-0.625 -0.09375,-0.00781 -0.2578125,-0.015625 -0.484375,-0.015625 -0.6054688,0 -1.1406251,0.1523438 -1.6093751,0.453125 -0.59375,0.375 -0.9140625,0.8750001 -0.953125,1.5000001 -0.023437,0.3554687 -0.1054688,0.53125 -0.2500001,0.53125 -0.1679687,0 -0.25,-0.1796875 -0.25,-0.546875 0,-0.1445313 0.023437,-0.3476563 0.078125,-0.609375 0.1015625,-0.5312501 0.3281251,-0.9882813 0.6718751,-1.3750001 0.34375,-0.3945313 0.7734375,-0.671875 1.296875,-0.828125 0.2382813,-0.09375 0.4609375,-0.140625 0.671875,-0.140625 0.03125,0 0.078125,0 0.1406251,0 0.070312,-0.00781 0.1328125,-0.015625 0.1875,-0.015625 0.5195312,0 1.0820313,0.1484375 1.6875,0.4375 0.03125,0.011719 0.8007813,0.4804687 2.3125001,1.40625 0.53125,0.3046875 1.0468751,0.5117188 1.5468751,0.6250001 0.070312,0.011719 0.2226563,0.015625 0.4531253,0.015625 0.601562,0 1.140625,-0.1484375 1.609375,-0.4531251 0.550781,-0.3515625 0.863281,-0.859375 0.9375,-1.515625 0,-0.1132813 0.02344,-0.2265625 0.07813,-0.34375 0.05078,-0.1132813 0.113281,-0.171875 0.1875,-0.171875 z m -0.265625,4.7656252 c 0,-0.3437501 0.08203,-0.5156251 0.25,-0.5156251 0.175781,0 0.265625,0.1953125 0.265625,0.5781251 0,0.1875 -0.02734,0.3828125 -0.07813,0.578125 -0.148438,0.6796875 -0.484375,1.2421875 -1.015625,1.6875001 -0.523438,0.4492187 -1.167969,0.67187498 -1.9375,0.67187498 -0.3984378,0 -0.8203128,-0.0820313 -1.2656253,-0.24999998 C 8.4375046,-1.3827834 7.8203171,-1.7265334 6.9687546,-2.281221 6.5507858,-2.5390335 6.2539108,-2.7265335 6.0781295,-2.843721 c -0.5429687,-0.3007813 -1.0546875,-0.5078125 -1.53125,-0.625 -0.09375,-0.00781 -0.2578125,-0.015625 -0.484375,-0.015625 -0.6054688,0 -1.1406251,0.1523437 -1.6093751,0.453125 -0.59375,0.375 -0.9140625,0.875 -0.953125,1.5000001 -0.023437,0.3554687 -0.1054688,0.53124998 -0.2500001,0.53124998 -0.1679687,0 -0.25,-0.17968748 -0.25,-0.54687498 0,-0.1445313 0.023437,-0.3476563 0.078125,-0.6093751 0.1015625,-0.53125 0.3281251,-0.9882813 0.6718751,-1.375 0.34375,-0.3945313 0.7734375,-0.6718751 1.296875,-0.8281251 0.2382813,-0.09375 0.4609375,-0.140625 0.671875,-0.140625 0.03125,0 0.078125,0 0.1406251,0 0.070312,-0.00781 0.1328125,-0.015625 0.1875,-0.015625 0.5195312,0 1.0820313,0.1484375 1.6875,0.4375001 0.03125,0.011719 0.8007813,0.4804687 2.3125001,1.40625 0.53125,0.3125 1.0468751,0.5234375 1.5468751,0.625 0.070312,0.011719 0.2226563,0.015625 0.4531253,0.015625 0.601562,0 1.140625,-0.1484375 1.609375,-0.453125 0.550781,-0.3515625 0.863281,-0.859375 0.9375,-1.515625 z m 0,0"
       style="fill:#000000;fill-opacity:1;fill-rule:nonzero;stroke:none"
       aria-label="≈"
       transform="matrix(0.396875,0,0,0.396875,0.37516905,5.1128547)"
       clip-path="url(#clipPath145)" />
  </g>
</svg>
