<?xml version="1.0" encoding="UTF-8" standalone="no"?>
<!-- Created with Inkscape (http://www.inkscape.org/) -->

<svg
   width="24"
   height="24"
   viewBox="0 0 6.3499999 6.3499999"
   version="1.1"
   id="svg1"
   inkscape:version="1.3.2 (091e20e, 2023-11-25, custom)"
   sodipodi:docname="arrow-left.svg"
   xmlns:inkscape="http://www.inkscape.org/namespaces/inkscape"
   xmlns:sodipodi="http://sodipodi.sourceforge.net/DTD/sodipodi-0.dtd"
   xmlns="http://www.w3.org/2000/svg"
   xmlns:svg="http://www.w3.org/2000/svg">
  <sodipodi:namedview
     id="namedview1"
     pagecolor="#ffffff"
     bordercolor="#000000"
     borderopacity="0.25"
     inkscape:showpageshadow="2"
     inkscape:pageopacity="0.0"
     inkscape:pagecheckerboard="0"
     inkscape:deskcolor="#d1d1d1"
     inkscape:document-units="mm"
     inkscape:zoom="16.395834"
     inkscape:cx="11.466328"
     inkscape:cy="15.217281"
     inkscape:window-width="1920"
     inkscape:window-height="1001"
     inkscape:window-x="-9"
     inkscape:window-y="1071"
     inkscape:window-maximized="1"
     inkscape:current-layer="layer1" />
  <defs
     id="defs1">
    <clipPath
       clipPathUnits="userSpaceOnUse"
       id="clipPath147">
      <path
         d="M 115.625,115.625 H 2432.3242 V 3182.3242 H 115.625 Z"
         transform="matrix(0.31999999,0,0,0.31999999,-103,-728.99997)"
         clip-rule="evenodd"
         id="path147" />
    </clipPath>
  </defs>
  <g
     inkscape:label="Layer 1"
     inkscape:groupmode="layer"
     id="layer1">
    <rect
       style="opacity:0;fill:none;stroke-width:2.64583;stroke-linejoin:round;stroke-miterlimit:16"
       id="rect1"
       width="6.3499999"
       height="6.3499999"
       x="0"
       y="0" />
    <path
       id="path146"
       d="m 16.875005,-4.9062198 c 0.175781,0.1054687 0.265625,0.2304687 0.265625,0.375 0,0.1367187 -0.08984,0.2578125 -0.265625,0.359375 H 3.0000044 l 0.046875,0.046875 c 1.2500001,0.9609375 2.0664064,2.1835938 2.4531251,3.67187516 0.070312,0.27343751 0.109375,0.42187501 0.109375,0.453125015001 0,0.132812504999 -0.125,0.203125004999 -0.375,0.203125004999 -0.1484375,0 -0.2421875,-0.015625 -0.28125,-0.046875 -0.042969,-0.03125 -0.078125,-0.109375 -0.109375,-0.23437501 -0.023437,-0.08203125 -0.042969,-0.17968751 -0.0625,-0.29687501 C 4.5625045,-1.2577822 4.1445357,-2.0468447 3.5312544,-2.7343447 2.9140669,-3.4296573 2.1796919,-3.9452823 1.3281293,-4.2812198 c -0.1875,-0.070312 -0.296875,-0.140625 -0.328125,-0.203125 0,-0.15625 0.109375,-0.2578125 0.328125,-0.3125 0.8515626,-0.3320313 1.5859376,-0.8437501 2.2031251,-1.5312501 0.6132813,-0.6953125 1.0312501,-1.4882813 1.2500001,-2.3750001 0.00781,-0.03125 0.019531,-0.082031 0.03125,-0.15625 0.00781,-0.070312 0.015625,-0.1171875 0.015625,-0.140625 0.00781,-0.03125 0.023437,-0.066406 0.046875,-0.109375 0.019531,-0.050781 0.039063,-0.082031 0.0625,-0.09375 0.019531,-0.019531 0.054687,-0.035156 0.109375,-0.046875 0.050781,-0.019531 0.1132813,-0.03125 0.1875,-0.03125 0.25,0 0.375,0.070312 0.375,0.203125 0,0.03125 -0.039063,0.1835938 -0.109375,0.453125 -0.3671875,1.4375001 -1.1835938,2.6640626 -2.4531251,3.6718752 l -0.046875,0.046875 z m 0,0"
       style="fill:#000000;fill-opacity:1;fill-rule:nonzero;stroke:none"
       aria-label="â†"
       transform="matrix(0.26458333,0,0,0.26458333,0.77514528,4.3759523)"
       clip-path="url(#clipPath147)" />
  </g>
</svg>
