<?xml version="1.0" encoding="UTF-8" standalone="no"?>
<!-- Created with Inkscape (http://www.inkscape.org/) -->

<svg
   width="24"
   height="24"
   viewBox="0 0 6.3499999 6.3499999"
   version="1.1"
   id="svg1"
   inkscape:version="1.3.2 (091e20e, 2023-11-25, custom)"
   sodipodi:docname="arrow-right.svg"
   xmlns:inkscape="http://www.inkscape.org/namespaces/inkscape"
   xmlns:sodipodi="http://sodipodi.sourceforge.net/DTD/sodipodi-0.dtd"
   xmlns="http://www.w3.org/2000/svg"
   xmlns:svg="http://www.w3.org/2000/svg">
  <sodipodi:namedview
     id="namedview1"
     pagecolor="#ffffff"
     bordercolor="#000000"
     borderopacity="0.25"
     inkscape:showpageshadow="2"
     inkscape:pageopacity="0.0"
     inkscape:pagecheckerboard="0"
     inkscape:deskcolor="#d1d1d1"
     inkscape:document-units="mm"
     inkscape:zoom="16.395834"
     inkscape:cx="9.4536212"
     inkscape:cy="13.50953"
     inkscape:window-width="1920"
     inkscape:window-height="1001"
     inkscape:window-x="-9"
     inkscape:window-y="1071"
     inkscape:window-maximized="1"
     inkscape:current-layer="layer1" />
  <defs
     id="defs1">
    <clipPath
       clipPathUnits="userSpaceOnUse"
       id="clipPath149">
      <path
         d="M 115.625,115.625 H 2432.3242 V 3182.3242 H 115.625 Z"
         transform="matrix(0.31999999,0,0,0.31999999,-103,-758.99997)"
         clip-rule="evenodd"
         id="path149" />
    </clipPath>
  </defs>
  <g
     inkscape:label="Layer 1"
     inkscape:groupmode="layer"
     id="layer1">
    <rect
       style="opacity:0;fill:none;stroke-width:2.64583;stroke-linejoin:round;stroke-miterlimit:16"
       id="rect1"
       width="6.3499999"
       height="6.3499999"
       x="0"
       y="0" />
    <path
       id="path148"
       d="m 1.2656293,-4.1718435 c -0.1679687,-0.082031 -0.25,-0.2031251 -0.25,-0.3593751 0,-0.1640625 0.082031,-0.2890625 0.25,-0.375 H 15.156255 c -0.855469,-0.6328125 -1.523438,-1.40625 -2,-2.3125001 -0.304688,-0.5820313 -0.5,-1.1601563 -0.59375,-1.734375 0,-0.019531 -0.0078,-0.039063 -0.01563,-0.0625 0,-0.03125 0,-0.050781 0,-0.0625 0,-0.1328125 0.117187,-0.203125 0.359375,-0.203125 0.144531,0 0.238281,0.015625 0.28125,0.046875 0.03906,0.03125 0.07813,0.1015625 0.109375,0.203125 0.03125,0.2500001 0.09375,0.5000001 0.1875,0.7500001 0.269531,0.8125 0.710937,1.5390625 1.328125,2.1718751 0.613281,0.6367187 1.332031,1.09375 2.15625,1.375 0.113281,0.03125 0.171875,0.1015625 0.171875,0.203125 0,0.09375 -0.05859,0.15625 -0.171875,0.1875 -0.824219,0.2812501 -1.542969,0.7421876 -2.15625,1.3750001 -0.617188,0.6367188 -1.058594,1.3593751 -1.328125,2.17187509 -0.08594,0.25000001 -0.148438,0.49218752 -0.1875,0.71875003 -0.03125,0.12500001 -0.07031,0.20312501 -0.109375,0.23437501 -0.04297,0.03125 -0.136719,0.046875 -0.28125,0.046875 -0.25,0 -0.375,-0.0703125 -0.375,-0.203125004999 0,-0.031250005 0.03516,-0.179687505001 0.109375,-0.453125015001 0.375,-1.50781261 1.210937,-2.75000011 2.515625,-3.71875011 z m 0,0"
       style="fill:#000000;fill-opacity:1;fill-rule:nonzero;stroke:none"
       aria-label="→"
       transform="matrix(0.26458333,0,0,0.26458333,0.77307889,4.3759519)"
       clip-path="url(#clipPath149)" />
  </g>
</svg>
