<?xml version="1.0" encoding="UTF-8" standalone="no"?>
<!-- Created with Inkscape (http://www.inkscape.org/) -->

<svg
   width="24"
   height="24"
   viewBox="0 0 6.3499999 6.3499999"
   version="1.1"
   id="svg1"
   inkscape:version="1.3.2 (091e20e, 2023-11-25, custom)"
   sodipodi:docname="infty.svg"
   xmlns:inkscape="http://www.inkscape.org/namespaces/inkscape"
   xmlns:sodipodi="http://sodipodi.sourceforge.net/DTD/sodipodi-0.dtd"
   xmlns="http://www.w3.org/2000/svg"
   xmlns:svg="http://www.w3.org/2000/svg">
  <sodipodi:namedview
     id="namedview1"
     pagecolor="#ffffff"
     bordercolor="#000000"
     borderopacity="0.25"
     inkscape:showpageshadow="2"
     inkscape:pageopacity="0.0"
     inkscape:pagecheckerboard="0"
     inkscape:deskcolor="#d1d1d1"
     inkscape:document-units="mm"
     inkscape:zoom="16.395834"
     inkscape:cx="11.405337"
     inkscape:cy="15.461245"
     inkscape:window-width="1920"
     inkscape:window-height="1001"
     inkscape:window-x="-9"
     inkscape:window-y="1071"
     inkscape:window-maximized="1"
     inkscape:current-layer="layer1" />
  <defs
     id="defs1">
    <clipPath
       clipPathUnits="userSpaceOnUse"
       id="clipPath151">
      <path
         d="M 115.625,115.625 H 2432.3242 V 3182.3242 H 115.625 Z"
         transform="matrix(0.31999999,0,0,0.31999999,-103,-788.99997)"
         clip-rule="evenodd"
         id="path151" />
    </clipPath>
  </defs>
  <g
     inkscape:label="Layer 1"
     inkscape:groupmode="layer"
     id="layer1">
    <rect
       style="opacity:0;fill:none;stroke-width:2.64583;stroke-linejoin:round;stroke-miterlimit:16"
       id="rect1"
       width="6.3499999"
       height="6.3499999"
       x="0"
       y="0" />
    <path
       id="path150"
       d="m 1.4531294,-5.9062174 c 0.3007812,-0.625 0.71875,-1.1328125 1.25,-1.53125 0.53125,-0.3945313 1.1640626,-0.5937501 1.9062501,-0.5937501 1.0390625,0 2.0390626,0.3710938 3.0000001,1.1093751 0.4570313,0.375 0.90625,0.8515625 1.3437501,1.421875 l 0.25,0.3437501 0.125,-0.1875 c 0.8320313,-1.1953126 1.7500003,-1.9921876 2.7500003,-2.3906251 0.519531,-0.1953126 1.015625,-0.2968751 1.484375,-0.2968751 0.394531,0 0.773437,0.070312 1.140625,0.203125 0.707031,0.2812501 1.289062,0.7812501 1.75,1.5000001 0.457031,0.7109375 0.6875,1.5234376 0.6875,2.4375001 0,0.9492188 -0.246094,1.7773438 -0.734375,2.4843751 -0.480469,0.71093755 -1.101563,1.18750007 -1.859375,1.43750008 -0.335938,0.11328125 -0.6875,0.171875 -1.0625,0.171875 -1.042969,0 -2.027344,-0.36718751 -2.953125,-1.10937504 C 10.070317,-1.2812172 9.6250047,-1.7538734 9.1875047,-2.3280922 l -0.25,-0.34375 -0.125,0.1875 c -0.8437501,1.1992188 -1.7617189,1.9960938 -2.7500002,2.39062507 -0.5234375,0.19531251 -1.015625,0.29687501 -1.484375,0.29687501 -0.40625,0 -0.7890626,-0.0703125 -1.1406251,-0.203125004999 C 2.7265669,-0.28121714 2.1445356,-0.77340466 1.6875044,-1.4843422 1.2265668,-2.2030922 1.0000043,-3.0194985 1.0000043,-3.9374673 c 0,-0.6875 0.1484375,-1.34375 0.4531251,-1.9687501 z M 13.89063,-0.92184216 c 0.769531,0 1.390625,-0.30468754 1.859375,-0.92187504 0.476562,-0.6132813 0.71875,-1.3125001 0.71875,-2.0937501 0,-0.8945313 -0.246094,-1.6601563 -0.734375,-2.2968751 -0.480469,-0.6445313 -1.121094,-0.96875 -1.921875,-0.96875 -0.667969,0 -1.296875,0.1953125 -1.890625,0.578125 -0.710938,0.4609375 -1.398438,1.2265626 -2.0625003,2.2968751 l 0.5625003,0.734375 c 0.382812,0.5 0.625,0.8085938 0.71875,0.9218751 0.945312,1.1679688 1.863281,1.75000004 2.75,1.75000004 z M 4.2343795,-6.9062174 c -0.7929688,0 -1.4179688,0.3085938 -1.8750001,0.921875 -0.4609375,0.6054688 -0.6875,1.3046876 -0.6875,2.0937501 0,0.7304688 0.171875,1.3984376 0.515625,2.0000001 0.3515625,0.59375 0.8046875,0.97656254 1.359375,1.14062504 0.2578126,0.10546876 0.5234376,0.15625001 0.7968751,0.15625001 0.625,0 1.2539063,-0.20312501 1.8906251,-0.60937505 0.6953125,-0.4570312 1.3789063,-1.2226563 2.046875,-2.2968751 l -0.5625,-0.734375 C 7.3320358,-4.7226236 7.0859421,-5.0312173 6.9843796,-5.1562173 6.1406295,-6.1757486 5.351567,-6.7421549 4.6250045,-6.8593424 4.476567,-6.8905924 4.3476607,-6.9062174 4.2343795,-6.9062174 Z m 0,0"
       style="fill:#000000;fill-opacity:1;fill-rule:nonzero;stroke:none"
       aria-label="∞"
       transform="matrix(0.26458333,0,0,0.26458333,0.77514528,4.210587)"
       clip-path="url(#clipPath151)" />
  </g>
</svg>
