<?xml version="1.0" encoding="UTF-8" standalone="no"?>
<!-- Created with Inkscape (http://www.inkscape.org/) -->

<svg
   width="24"
   height="24"
   viewBox="0 0 6.3499999 6.3499999"
   version="1.1"
   id="svg1"
   inkscape:version="1.3.2 (091e20e, 2023-11-25, custom)"
   sodipodi:docname="pi.svg"
   xmlns:inkscape="http://www.inkscape.org/namespaces/inkscape"
   xmlns:sodipodi="http://sodipodi.sourceforge.net/DTD/sodipodi-0.dtd"
   xmlns="http://www.w3.org/2000/svg"
   xmlns:svg="http://www.w3.org/2000/svg">
  <sodipodi:namedview
     id="namedview1"
     pagecolor="#ffffff"
     bordercolor="#000000"
     borderopacity="0.25"
     inkscape:showpageshadow="2"
     inkscape:pageopacity="0.0"
     inkscape:pagecheckerboard="0"
     inkscape:deskcolor="#d1d1d1"
     inkscape:document-units="mm"
     inkscape:zoom="16.395834"
     inkscape:cx="12.381194"
     inkscape:cy="18.144854"
     inkscape:window-width="1920"
     inkscape:window-height="1001"
     inkscape:window-x="-9"
     inkscape:window-y="1071"
     inkscape:window-maximized="1"
     inkscape:current-layer="layer1" />
  <defs
     id="defs1">
    <clipPath
       clipPathUnits="userSpaceOnUse"
       id="clipPath153">
      <path
         d="M 115.625,115.625 H 2432.3242 V 3182.3242 H 115.625 Z"
         transform="matrix(0.31999999,0,0,0.31999999,-103,-818.99997)"
         clip-rule="evenodd"
         id="path153" />
    </clipPath>
  </defs>
  <g
     inkscape:label="Layer 1"
     inkscape:groupmode="layer"
     id="layer1">
    <rect
       style="opacity:0;fill:none;stroke-width:2.64583;stroke-linejoin:round;stroke-miterlimit:16"
       id="rect1"
       width="6.3499999"
       height="6.3499999"
       x="0"
       y="0" />
    <path
       id="path152"
       d="m 7.8281296,-0.6718409 c 0,0.21093751 -0.089844,0.40625001 -0.265625,0.59375002 -0.1796875,0.17578126 -0.390625,0.26562501 -0.640625,0.26562501 -0.1875,0 -0.3125,-0.0273438 -0.375,-0.078125 -0.0625,-0.0546875 -0.1328125,-0.14843751 -0.203125,-0.29687501 C 6.101567,-0.7187159 5.9843795,-1.3905909 5.9843795,-2.203091 c 0,-0.4257812 0.00781,-0.7109375 0.03125,-0.859375 0.082031,-0.84375 0.2695313,-1.8515626 0.5625001,-3.0312501 0.050781,-0.25 0.078125,-0.3828125 0.078125,-0.40625 H 4.8906295 l -0.03125,0.078125 c 0,0.011719 -0.011719,0.0625 -0.03125,0.15625 -0.023437,0.085937 -0.054687,0.2148437 -0.09375,0.390625 -0.042969,0.1796875 -0.085937,0.3398437 -0.125,0.484375 -0.8046875,3.1171876 -1.2812501,4.80859395 -1.4375001,5.07812521 -0.1484375,0.34375002 -0.40625,0.51562502 -0.78125,0.51562502 -0.2734375,0 -0.4648438,-0.10546875 -0.578125,-0.31250001 -0.023437,-0.0625 -0.03125,-0.16015626 -0.03125,-0.29687501 V -0.5937159 l 0.234375,-0.515625 c 0.90625,-1.9062501 1.5664063,-3.5546877 1.9843751,-4.9531252 l 0.140625,-0.4375 H 3.5625044 c -0.4921875,0 -0.828125,0.023437 -1.015625,0.0625 -0.1875,0.03125 -0.4140625,0.1484375 -0.671875,0.34375 -0.2929688,0.1796875 -0.5468751,0.421875 -0.7656251,0.734375 -0.0625,0.1054688 -0.11718747,0.1679688 -0.15624997,0.1875 -0.03125,0.011719 -0.12109375,0.015625 -0.26562501,0.015625 -0.18750001,0 -0.30468751,-0.039063 -0.34375001,-0.125 -0.0117188,-0.0625 0.0507813,-0.203125 0.1875,-0.421875 0.83203129,-1.2695313 1.64843759,-1.9609376 2.45312509,-2.0781251 0.082031,-0.03125 1.4414063,-0.046875 4.0781252,-0.046875 1.9375001,0 2.9296876,0.00781 2.9843754,0.015625 0.238281,0.085937 0.359375,0.2578125 0.359375,0.515625 0,0.375 -0.195313,0.6328125 -0.5781253,0.7656251 -0.074219,0.023437 -0.4960938,0.03125 -1.2656251,0.03125 h -1.15625 l -0.046875,0.3125 c -0.1484375,0.8671875 -0.21875,1.5859375 -0.21875,2.1562501 0,1.0742188 0.1875,2.046875 0.5625,2.9218751 0.082031,0.21874999 0.125,0.36718749 0.125,0.4375 z m 0,0"
       style="fill:#000000;fill-opacity:1;fill-rule:nonzero;stroke:none"
       aria-label="π"
       transform="matrix(0.396875,0,0,0.396875,1.0420704,4.6880725)"
       clip-path="url(#clipPath153)" />
  </g>
</svg>
